<svg width="224" height="32" viewBox="0 0 224 32" fill="none" xmlns="http://www.w3.org/2000/svg">
<path d="M117.28 25.384C114.037 25.384 111.328 24.2747 109.152 22.056C106.976 19.816 105.888 17.064 105.888 13.8C105.888 10.5573 106.976 7.816 109.152 5.576C111.328 3.336 114.091 2.216 117.44 2.216C119.381 2.216 121.024 2.51467 122.368 3.112C123.733 3.70933 125.013 4.57333 126.208 5.704L123.68 8.616C121.675 6.76 119.584 5.832 117.408 5.832C115.275 5.832 113.504 6.6 112.096 8.136C110.709 9.672 110.016 11.56 110.016 13.8C110.016 16.0187 110.72 17.9067 112.128 19.464C113.536 21 115.296 21.768 117.408 21.768C118.688 21.768 119.819 21.5333 120.8 21.064C121.781 20.5733 122.795 19.8373 123.84 18.856L126.368 21.416C125.109 22.7387 123.776 23.7307 122.368 24.392C120.96 25.0533 119.264 25.384 117.28 25.384ZM130.734 25V2.6H134.67V21.416H146.446V25H130.734ZM168.598 21.992C166.379 24.2533 163.574 25.384 160.182 25.384C156.79 25.384 153.995 24.264 151.798 22.024C149.601 19.784 148.502 17.0427 148.502 13.8C148.502 10.6 149.611 7.86933 151.83 5.608C154.049 3.34667 156.854 2.216 160.246 2.216C163.638 2.216 166.433 3.336 168.63 5.576C170.827 7.816 171.926 10.5573 171.926 13.8C171.926 17 170.817 19.7307 168.598 21.992ZM154.774 19.464C156.225 21 158.049 21.768 160.246 21.768C162.443 21.768 164.246 21 165.654 19.464C167.083 17.928 167.798 16.04 167.798 13.8C167.798 11.5813 167.073 9.704 165.622 8.168C164.193 6.61067 162.379 5.832 160.182 5.832C157.985 5.832 156.171 6.6 154.742 8.136C153.334 9.672 152.63 11.56 152.63 13.8C152.63 16.0187 153.345 17.9067 154.774 19.464ZM186.095 25.352C183.129 25.352 180.793 24.5093 179.087 22.824C177.401 21.1387 176.559 18.696 176.559 15.496V2.6H180.495V15.336C180.495 17.384 180.996 18.9627 181.999 20.072C183.001 21.1813 184.388 21.736 186.159 21.736C187.929 21.736 189.305 21.2027 190.287 20.136C191.289 19.0693 191.791 17.5227 191.791 15.496V2.6H195.727V15.304C195.727 18.568 194.873 21.064 193.167 22.792C191.46 24.4987 189.103 25.352 186.095 25.352ZM201.358 25V2.6H209.71C213.209 2.6 216.068 3.66667 218.286 5.8C220.505 7.912 221.614 10.5787 221.614 13.8C221.614 17 220.494 19.6667 218.254 21.8C216.036 23.9333 213.188 25 209.71 25H201.358ZM205.294 21.416H209.71C212.036 21.416 213.913 20.712 215.342 19.304C216.772 17.8747 217.486 16.04 217.486 13.8C217.486 11.5813 216.772 9.75733 215.342 8.328C213.913 6.89867 212.036 6.184 209.71 6.184H205.294V21.416Z" fill="#2196F3"/>
<path d="M0 25.1148V2.45325H4.59705L15.2156 16.4063V2.45325H20.1364V25.1148H15.8954L4.92079 10.7085V25.1148H0Z" fill="black"/>
<path d="M25.5764 25.1148V2.45325H42.6697V6.88844H30.5296V11.4855H41.2129V15.9207H30.5296V20.6796H42.8316V25.1148H25.5764Z" fill="black"/>
<path d="M53.2533 25.2767L45.516 2.45325H50.8577L55.5519 17.7983L60.6345 2.38851H64.9078L69.9905 17.7983L74.6847 2.45325H79.8968L72.1595 25.2767H67.8215L62.7064 10.4495L57.5914 25.2767H53.2533Z" fill="black"/>
<path d="M91.0184 25.4385C87.3062 25.4385 84.1012 24.2299 81.4035 21.8127L84.3494 18.284C86.5724 20.1185 88.8278 21.0357 91.1155 21.0357C92.1299 21.0357 92.9285 20.8415 93.5112 20.453C94.0939 20.0645 94.3853 19.5249 94.3853 18.8343C94.3853 18.1868 94.0831 17.6689 93.4788 17.2804C92.8745 16.8703 91.6551 16.4279 89.8206 15.953C88.5257 15.6293 87.4789 15.3164 86.6804 15.0142C85.8818 14.6905 85.1156 14.2696 84.3818 13.7516C83.6696 13.2337 83.1408 12.5862 82.7955 11.8092C82.4718 11.0107 82.3099 10.0611 82.3099 8.96035C82.3099 6.91002 83.0437 5.25897 84.5113 4.00719C86.0005 2.75541 87.9105 2.12952 90.2414 2.12952C93.4572 2.12952 96.2629 3.08993 98.6586 5.01077L96.0687 8.76611C93.932 7.27692 91.968 6.53233 90.1767 6.53233C89.2487 6.53233 88.5257 6.72657 88.0077 7.11505C87.5113 7.48195 87.2631 7.96756 87.2631 8.57187C87.2631 9.30567 87.576 9.85602 88.2019 10.2229C88.8278 10.5898 90.1443 11.0323 92.1515 11.5502C94.6119 12.1977 96.4248 13.0286 97.5903 14.043C98.7557 15.0574 99.3384 16.5142 99.3384 18.4134C99.3384 20.6149 98.5723 22.3414 97.0399 23.5932C95.5291 24.8234 93.522 25.4385 91.0184 25.4385Z" fill="black"/>
</svg>
