<svg width="660" height="549" viewBox="0 0 660 549" fill="none" xmlns="http://www.w3.org/2000/svg">
<g clip-path="url(#clip0)">
<path d="M512.328 186.354C515.768 186.864 519.208 187.501 522.776 188.01H522.903C523.286 188.01 523.668 187.755 523.795 187.246C523.923 186.736 523.54 186.354 523.031 186.227C519.591 185.717 516.023 185.208 512.583 184.571C512.073 184.444 511.691 184.826 511.564 185.335C511.564 185.845 511.818 186.227 512.328 186.354Z" fill="#8EC8FD"/>
<path d="M471.046 177.438C474.359 178.457 477.799 179.348 481.239 180.24C481.367 180.24 481.367 180.24 481.494 180.24C481.876 180.24 482.259 179.985 482.386 179.603C482.514 179.094 482.259 178.712 481.749 178.584C478.309 177.693 474.869 176.801 471.556 175.782C471.046 175.655 470.664 175.909 470.537 176.419C470.282 176.801 470.537 177.31 471.046 177.438Z" fill="#8EC8FD"/>
<path d="M491.56 182.533C494.873 183.17 498.313 183.934 501.88 184.571H502.008C502.39 184.571 502.772 184.316 502.9 183.807C503.027 183.297 502.645 182.915 502.263 182.788C498.568 182.151 495.255 181.514 491.942 180.75C491.432 180.622 491.05 181.004 490.923 181.387C490.795 182.023 491.05 182.406 491.56 182.533Z" fill="#8EC8FD"/>
<path d="M553.992 193.105C557.687 193.87 561 194.506 564.313 195.271C564.44 195.271 564.44 195.271 564.568 195.271C564.95 195.271 565.332 195.016 565.459 194.634C565.587 194.124 565.332 193.742 564.822 193.615C561.51 192.851 558.197 192.214 554.502 191.449C553.992 191.322 553.61 191.704 553.483 192.086C553.1 192.596 553.483 193.105 553.992 193.105Z" fill="#8EC8FD"/>
<path d="M574.378 197.818C577.819 198.71 581.259 199.729 584.444 200.748C584.571 200.748 584.571 200.748 584.699 200.748C585.081 200.748 585.463 200.493 585.463 200.111C585.591 199.602 585.336 199.219 584.954 198.965C581.768 197.946 578.328 196.927 574.761 195.908C574.251 195.78 573.869 196.035 573.741 196.545C573.741 197.181 573.996 197.691 574.378 197.818Z" fill="#8EC8FD"/>
<path d="M533.224 189.539C536.664 190.048 540.104 190.685 543.672 191.195H543.799C544.181 191.195 544.564 190.94 544.691 190.43C544.819 189.921 544.436 189.539 543.927 189.411C540.487 188.774 536.919 188.265 533.479 187.755C532.969 187.628 532.587 188.01 532.46 188.52C532.332 189.029 532.714 189.539 533.224 189.539Z" fill="#8EC8FD"/>
<path d="M451.042 170.305C454.228 171.706 457.541 172.98 460.853 174.253C460.981 174.253 461.108 174.253 461.108 174.253C461.49 174.253 461.745 173.999 461.873 173.616C462 173.107 461.745 172.725 461.363 172.47C458.05 171.324 454.737 169.922 451.552 168.649C451.17 168.521 450.66 168.649 450.405 169.158C450.405 169.54 450.66 170.05 451.042 170.305Z" fill="#8EC8FD"/>
<path d="M423.649 154.128C423.776 154.255 424.031 154.255 424.158 154.255C424.413 154.255 424.668 154.128 424.795 153.873C425.05 153.491 425.05 152.981 424.668 152.599C421.992 150.561 419.444 148.268 416.768 145.721C416.386 145.339 415.876 145.466 415.494 145.721C415.112 146.103 415.239 146.612 415.494 146.994C418.425 149.797 420.973 152.09 423.649 154.128Z" fill="#8EC8FD"/>
<path d="M365.039 93.623C365.166 93.7503 365.421 93.8777 365.676 93.8777C365.931 93.8777 366.185 93.7503 366.313 93.623C366.568 93.2408 366.568 92.7313 366.185 92.3492C363.51 90.0564 360.834 87.7636 358.158 85.4708C357.776 85.216 357.266 85.216 356.884 85.5981C356.629 85.9803 356.629 86.4898 357.012 86.8719C359.687 89.0373 362.363 91.3302 365.039 93.623Z" fill="#8EC8FD"/>
<path d="M340.066 74.3889C342.996 76.2995 345.799 78.3376 348.73 80.3756C348.857 80.503 349.112 80.503 349.239 80.503C349.494 80.503 349.749 80.3756 350.004 80.1209C350.259 79.7388 350.259 79.2292 349.876 78.8471C347.073 76.8091 344.143 74.771 341.212 72.7329C340.83 72.4782 340.32 72.6056 340.066 72.9877C339.556 73.6246 339.683 74.1341 340.066 74.3889Z" fill="#8EC8FD"/>
<path d="M380.201 108.144C380.328 108.271 380.583 108.399 380.838 108.399C381.093 108.399 381.22 108.271 381.475 108.144C381.857 107.762 381.857 107.252 381.475 106.87C379.054 104.323 376.506 101.775 373.958 99.355C373.575 98.9729 373.066 98.9729 372.683 99.355C372.301 99.7371 372.301 100.247 372.683 100.629C375.232 103.176 377.78 105.724 380.201 108.144Z" fill="#8EC8FD"/>
<path d="M594.382 204.315C596.803 205.334 599.224 206.353 601.517 207.372C602.282 207.754 603.174 208.136 603.938 208.518C604.066 208.518 604.193 208.645 604.32 208.645C604.703 208.645 604.958 208.518 605.085 208.136C605.34 207.754 605.085 207.244 604.703 206.99C603.938 206.607 603.046 206.225 602.282 205.843C599.988 204.824 597.44 203.678 595.019 202.786C594.637 202.659 594.127 202.786 593.873 203.296C593.745 203.678 593.873 204.187 594.382 204.315Z" fill="#8EC8FD"/>
<path d="M394.089 123.939C394.216 124.194 394.471 124.194 394.726 124.194C394.981 124.194 395.108 124.066 395.236 123.939C395.618 123.684 395.618 123.047 395.363 122.665C393.07 119.99 390.776 117.315 388.483 114.64C388.228 114.258 387.591 114.258 387.208 114.513C386.826 114.768 386.826 115.405 387.081 115.787C389.502 118.589 391.795 121.264 394.089 123.939Z" fill="#8EC8FD"/>
<path d="M432.313 160.369C435.243 162.28 438.301 164.063 441.486 165.719C441.614 165.846 441.741 165.846 441.869 165.846C442.124 165.846 442.506 165.719 442.633 165.337C442.888 164.955 442.633 164.445 442.251 164.19C439.066 162.535 436.135 160.751 433.205 158.968C432.822 158.713 432.313 158.841 432.058 159.223C431.803 159.477 431.93 160.114 432.313 160.369Z" fill="#8EC8FD"/>
<path d="M408.104 139.734C408.232 139.861 408.486 139.989 408.741 139.989C408.996 139.989 409.124 139.861 409.378 139.734C409.761 139.352 409.761 138.842 409.378 138.46C407.212 136.167 404.919 133.62 402.371 130.69C402.116 130.308 401.479 130.308 401.096 130.563C400.714 130.817 400.714 131.454 400.969 131.836C403.645 134.894 405.938 137.441 408.104 139.734Z" fill="#8EC8FD"/>
<path d="M605.977 450.791H606.104C606.486 450.791 606.869 450.537 606.996 450.027C607.506 446.715 608.27 443.149 609.035 439.71C609.162 439.2 608.907 438.818 608.398 438.69C607.888 438.563 607.506 438.818 607.378 439.327C606.614 442.767 605.849 446.333 605.34 449.772C605.212 450.282 605.467 450.791 605.977 450.791Z" fill="#8EC8FD"/>
<path d="M654.903 311.822C655.286 311.822 655.668 311.567 655.795 311.185C656.815 307.491 657.579 304.179 658.216 300.867C658.344 300.358 657.961 299.976 657.579 299.848C657.069 299.721 656.687 300.103 656.56 300.485C655.923 303.67 655.158 307.109 654.266 310.675C654.139 311.185 654.394 311.567 654.903 311.694C654.776 311.822 654.903 311.822 654.903 311.822Z" fill="#8EC8FD"/>
<path d="M658.216 279.723C658.216 280.742 658.344 281.888 658.344 282.907C658.344 285.2 658.216 287.62 657.961 290.168C657.961 290.677 658.216 291.059 658.726 291.059C658.726 291.059 658.726 291.059 658.853 291.059C659.235 291.059 659.618 290.677 659.745 290.295C660 287.747 660.127 285.327 660.127 282.907C660.127 281.888 660.127 280.742 660 279.723C660 279.213 659.618 278.831 659.108 278.831C658.598 278.958 658.216 279.34 658.216 279.723Z" fill="#8EC8FD"/>
<path d="M632.988 371.18C633.371 371.18 633.625 370.925 633.753 370.671C635.154 367.486 636.556 364.174 637.83 360.99C637.958 360.608 637.83 360.098 637.32 359.843C636.938 359.716 636.429 359.843 636.174 360.353C634.772 363.537 633.498 366.849 632.096 370.034C631.969 370.416 632.096 370.925 632.606 371.18C632.734 371.18 632.861 371.18 632.988 371.18Z" fill="#8EC8FD"/>
<path d="M603.429 492.062C603.429 492.571 603.811 492.826 604.32 492.826C604.32 492.826 604.32 492.826 604.448 492.826C604.958 492.826 605.34 492.317 605.212 491.935C604.958 488.495 604.83 484.929 604.703 481.49C604.703 480.98 604.32 480.725 603.811 480.598C603.301 480.598 602.919 480.98 602.919 481.49C602.919 485.056 603.174 488.623 603.429 492.062Z" fill="#8EC8FD"/>
<path d="M656.942 269.405C657.069 269.787 657.324 270.042 657.834 270.042H657.961C658.471 269.914 658.726 269.532 658.598 269.023C657.961 265.584 656.942 262.144 655.668 258.832C655.541 258.323 655.031 258.196 654.521 258.323C654.012 258.45 653.884 258.96 654.012 259.469C655.286 262.781 656.305 266.093 656.942 269.405Z" fill="#8EC8FD"/>
<path d="M321.973 63.6891C325.031 65.345 328.089 67.0009 331.147 68.7842C331.274 68.9116 331.402 68.9116 331.529 68.9116C331.784 68.9116 332.166 68.7842 332.293 68.5295C332.548 68.1473 332.421 67.6378 332.039 67.3831C328.981 65.5998 325.923 63.8165 322.737 62.2879C322.355 62.0332 321.846 62.2879 321.591 62.6701C321.336 62.9248 321.591 63.5617 321.973 63.6891Z" fill="#8EC8FD"/>
<path d="M603.811 471.809C604.32 471.809 604.703 471.427 604.703 470.917C604.83 467.478 605.085 463.911 605.467 460.472C605.467 459.963 605.212 459.58 604.703 459.58C604.193 459.58 603.811 459.835 603.811 460.345C603.429 463.784 603.174 467.351 603.046 470.917C603.046 471.427 603.429 471.809 603.811 471.809Z" fill="#8EC8FD"/>
<path d="M624.452 390.541C624.579 390.541 624.707 390.669 624.834 390.669C625.216 390.669 625.471 390.414 625.598 390.159C626.873 386.975 628.274 383.663 629.676 380.479C629.803 380.097 629.676 379.587 629.166 379.332C628.784 379.205 628.274 379.332 628.019 379.842C626.618 383.026 625.344 386.338 623.942 389.522C623.815 389.777 624.069 390.287 624.452 390.541Z" fill="#8EC8FD"/>
<path d="M613.239 213.486C616.297 215.269 619.228 217.18 622.031 219.218C622.158 219.345 622.413 219.345 622.541 219.345C622.795 219.345 623.05 219.218 623.305 218.963C623.56 218.581 623.56 218.071 623.05 217.689C620.247 215.651 617.189 213.613 614.131 211.83C613.749 211.575 613.239 211.703 612.985 212.085C612.602 212.722 612.73 213.231 613.239 213.486Z" fill="#8EC8FD"/>
<path d="M610.564 430.284C610.691 430.284 610.691 430.284 610.819 430.284C611.201 430.284 611.583 430.029 611.71 429.647C612.602 426.462 613.622 423.023 614.768 419.584C614.896 419.074 614.641 418.692 614.259 418.437C613.749 418.31 613.367 418.565 613.112 418.947C611.965 422.386 610.946 425.825 610.054 429.137C609.799 429.647 610.054 430.156 610.564 430.284Z" fill="#8EC8FD"/>
<path d="M637.575 233.102C637.703 233.229 637.958 233.357 638.212 233.357C638.467 233.357 638.595 233.229 638.849 233.102C639.232 232.72 639.232 232.21 638.849 231.828C636.556 229.281 634.008 226.733 631.205 224.44C630.822 224.186 630.313 224.186 629.931 224.568C629.676 224.95 629.676 225.459 630.058 225.842C632.734 228.134 635.282 230.555 637.575 233.102Z" fill="#8EC8FD"/>
<path d="M651.209 320.866C650.189 324.05 649.042 327.362 647.896 330.801C647.768 331.311 648.023 331.693 648.405 331.948C648.533 331.948 648.66 331.948 648.66 331.948C649.042 331.948 649.297 331.693 649.425 331.311C650.571 327.871 651.718 324.56 652.737 321.248C652.865 320.738 652.61 320.356 652.228 320.101C651.846 320.101 651.336 320.356 651.209 320.866Z" fill="#8EC8FD"/>
<path d="M649.68 250.043C649.807 250.298 650.189 250.553 650.444 250.553C650.572 250.553 650.699 250.553 650.826 250.426C651.209 250.171 651.463 249.661 651.209 249.279C649.552 246.222 647.641 243.165 645.475 240.235C645.22 239.853 644.583 239.726 644.201 239.98C643.819 240.235 643.691 240.745 643.946 241.254C646.239 244.057 648.151 246.986 649.68 250.043Z" fill="#8EC8FD"/>
<path d="M640.761 351.564C640.888 351.564 641.015 351.564 641.143 351.564C641.525 351.564 641.78 351.309 641.907 351.054C643.309 347.615 644.583 344.303 645.73 341.246C645.857 340.737 645.73 340.355 645.22 340.1C644.838 339.972 644.328 340.1 644.073 340.609C642.927 343.666 641.652 346.978 640.251 350.417C640.124 350.927 640.378 351.436 640.761 351.564Z" fill="#8EC8FD"/>
<path d="M617.189 410.285C617.571 410.285 617.826 410.03 617.954 409.648C619.1 406.464 620.247 403.279 621.649 399.84C621.776 399.331 621.649 398.948 621.139 398.694C620.757 398.566 620.247 398.694 619.992 399.203C618.591 402.642 617.444 405.954 616.297 409.139C616.17 409.648 616.425 410.03 616.807 410.285C617.062 410.285 617.062 410.285 617.189 410.285Z" fill="#8EC8FD"/>
<path d="M9.93819 304.943C9.42854 304.816 9.0463 305.198 8.91888 305.58C8.28182 309.019 7.77216 312.586 7.26251 316.025C7.26251 316.535 7.51734 316.917 8.02699 317.044H8.1544C8.53664 317.044 8.91888 316.79 9.0463 316.28C9.55595 312.841 10.0656 309.402 10.7027 305.962C10.7027 305.453 10.3204 304.943 9.93819 304.943Z" fill="#8EC8FD"/>
<path d="M7.89961 367.868C7.38996 367.868 7.13513 368.378 7.13513 368.887C7.64478 372.326 8.15444 375.893 8.7915 379.332C8.91892 379.714 9.17374 380.096 9.68339 380.096H9.81081C10.3205 379.969 10.5753 379.587 10.4479 379.077C9.81081 375.638 9.30115 372.199 8.7915 368.76C8.7915 368.123 8.28185 367.741 7.89961 367.868Z" fill="#8EC8FD"/>
<path d="M12.6139 389.268C12.4865 388.758 11.9768 388.504 11.5946 388.631C11.0849 388.758 10.8301 389.268 10.9575 389.65C11.722 393.089 12.6139 396.528 13.6332 399.84C13.7606 400.222 14.1428 400.477 14.5251 400.477C14.6525 400.477 14.6525 400.477 14.7799 400.477C15.2896 400.35 15.5444 399.84 15.417 399.458C14.2703 396.019 13.3784 392.707 12.6139 389.268Z" fill="#8EC8FD"/>
<path d="M60.139 203.805C60.3938 203.805 60.6486 203.678 60.7761 203.55C62.5598 201.64 64.3436 199.602 66.2548 197.818C66.8919 197.181 67.4015 196.545 68.0386 196.035C68.4208 195.653 68.4208 195.143 68.0386 194.761C67.6564 194.379 67.1467 194.379 66.7645 194.761C66.1274 195.398 65.4903 196.035 64.9807 196.545C63.0695 198.455 61.2857 200.366 59.5019 202.404C59.1197 202.786 59.2471 203.296 59.5019 203.678C59.7568 203.678 60.0116 203.805 60.139 203.805Z" fill="#8EC8FD"/>
<path d="M14.7799 284.436C14.2703 284.308 13.888 284.563 13.7606 285.072C12.7413 288.512 11.8494 291.951 11.085 295.263C10.9575 295.772 11.2124 296.154 11.722 296.282C11.8494 296.282 11.8494 296.282 11.9769 296.282C12.3591 296.282 12.7413 296.027 12.8687 295.645C13.6332 292.206 14.5251 288.894 15.5444 285.455C15.5444 285.072 15.2896 284.563 14.7799 284.436Z" fill="#8EC8FD"/>
<path d="M66.5096 490.279C66.6371 490.406 66.8919 490.533 67.1467 490.533C67.4015 490.533 67.529 490.406 67.7838 490.279C68.166 489.896 68.166 489.387 67.7838 489.005C65.3629 486.585 62.9421 483.91 60.5212 481.362C60.139 480.98 59.6293 480.98 59.2471 481.235C58.8648 481.617 58.8649 482.126 59.1197 482.509C61.6679 485.184 64.0888 487.858 66.5096 490.279Z" fill="#8EC8FD"/>
<path d="M7.7722 358.187C7.51737 355.13 7.38996 352.201 7.26254 349.144V347.742C7.26254 347.233 6.8803 346.978 6.37065 346.851C5.861 346.851 5.47876 347.233 5.47876 347.742V349.144C5.60617 352.201 5.73359 355.258 5.98841 358.315C5.98841 358.824 6.37065 359.079 6.8803 359.079C6.8803 359.079 6.8803 359.079 7.00772 359.079C7.38996 359.079 7.7722 358.697 7.7722 358.187Z" fill="#8EC8FD"/>
<path d="M6.37066 338.062C6.88031 338.062 7.26255 337.68 7.26255 337.17C7.38996 333.731 7.51737 330.164 7.89961 326.725C7.89961 326.216 7.64479 325.833 7.13513 325.833C6.62548 325.833 6.24324 326.088 6.24324 326.598C5.98842 330.164 5.73359 333.603 5.60618 337.17C5.47876 337.68 5.861 338.062 6.37066 338.062Z" fill="#8EC8FD"/>
<path d="M18.4749 409.393C18.3475 408.884 17.8378 408.757 17.3282 408.884C16.8185 409.011 16.6911 409.521 16.8185 410.03C17.9653 413.342 19.2394 416.654 20.5135 419.966C20.6409 420.348 21.0232 420.475 21.278 420.475C21.4054 420.475 21.5328 420.475 21.6602 420.475C22.0425 420.348 22.2973 419.839 22.1699 419.329C20.7683 416.017 19.4942 412.705 18.4749 409.393Z" fill="#8EC8FD"/>
<path d="M47.3977 465.185C47.1429 464.803 46.6332 464.676 46.1235 464.93C45.7413 465.185 45.6139 465.695 45.8687 466.204C47.9073 469.007 50.0734 471.936 52.3668 474.611C52.4942 474.866 52.749 474.993 53.0039 474.993C53.2587 474.993 53.3861 474.993 53.5135 474.739C53.8957 474.484 53.8957 473.847 53.6409 473.465C51.6023 470.79 49.4363 467.987 47.3977 465.185Z" fill="#8EC8FD"/>
<path d="M21.7876 264.564C21.4054 264.437 20.8957 264.565 20.6409 265.074C19.3668 268.386 18.0926 271.698 16.9459 275.009C16.8185 275.519 17.0733 275.901 17.4556 276.156C17.583 276.156 17.583 276.156 17.7104 276.156C18.0926 276.156 18.3475 275.901 18.4749 275.519C19.6216 272.207 20.8957 268.895 22.1699 265.711C22.4247 265.201 22.1699 264.692 21.7876 264.564Z" fill="#8EC8FD"/>
<path d="M52.6216 210.429C50.4556 213.104 48.2895 215.906 46.1235 218.836C45.8687 219.218 45.8687 219.727 46.2509 220.11C46.3783 220.237 46.6332 220.237 46.7606 220.237C47.0154 220.237 47.2702 220.11 47.5251 219.855C49.5637 217.052 51.7297 214.25 53.8957 211.575C54.1505 211.193 54.1505 210.684 53.7683 210.301C53.5135 209.919 53.0038 210.047 52.6216 210.429Z" fill="#8EC8FD"/>
<path d="M41.4093 227.243C41.027 226.988 40.5174 227.115 40.2626 227.497C38.3514 230.427 36.4402 233.484 34.6564 236.541C34.4016 236.923 34.529 237.433 34.9112 237.688C35.0386 237.815 35.166 237.815 35.2934 237.815C35.5483 237.815 35.9305 237.688 36.0579 237.433C37.8417 234.376 39.6255 231.446 41.5367 228.516C41.9189 228.007 41.7915 227.497 41.4093 227.243Z" fill="#8EC8FD"/>
<path d="M35.9305 447.607C35.6757 447.225 35.166 447.097 34.7838 447.352C34.4015 447.607 34.2741 448.116 34.5289 448.499C36.3127 451.556 38.2239 454.613 40.1351 457.542C40.2625 457.797 40.5174 457.925 40.8996 457.925C41.027 457.925 41.2818 457.925 41.4092 457.797C41.7915 457.542 41.9189 457.033 41.6641 456.651C39.4981 453.594 37.7143 450.537 35.9305 447.607Z" fill="#8EC8FD"/>
<path d="M26.2471 428.882C25.9922 428.5 25.4826 428.245 25.1004 428.5C24.7181 428.755 24.4633 429.264 24.7181 429.647C26.2471 432.831 27.776 436.016 29.305 439.2C29.4324 439.455 29.8146 439.71 30.0695 439.71C30.1969 439.71 30.3243 439.71 30.4517 439.582C30.8339 439.327 31.0888 438.818 30.8339 438.436C29.1776 435.251 27.6486 432.067 26.2471 428.882Z" fill="#8EC8FD"/>
<path d="M30.5791 245.33C30.1969 245.076 29.6872 245.33 29.4324 245.713C27.776 248.77 26.2471 252.081 24.7181 255.266C24.4633 255.648 24.7181 256.158 25.1004 256.412C25.2278 256.412 25.3552 256.54 25.4826 256.54C25.8648 256.54 26.1197 256.412 26.2471 256.03C27.6486 252.846 29.305 249.661 30.8339 246.604C31.2162 246.095 31.0888 245.585 30.5791 245.33Z" fill="#8EC8FD"/>
<path d="M282.857 48.7858C286.17 49.6775 289.61 50.5691 292.923 51.5882C293.05 51.5882 293.05 51.5882 293.178 51.5882C293.56 51.5882 293.942 51.3334 293.942 50.9513C294.069 50.4418 293.815 50.0596 293.432 49.8049C290.12 48.7858 286.68 47.7668 283.239 46.8752C282.73 46.7478 282.348 47.0026 282.22 47.5121C282.093 48.149 282.348 48.6585 282.857 48.7858Z" fill="#8EC8FD"/>
<path d="M220.297 46.7478H220.425C223.865 46.1109 227.305 45.6014 230.745 45.0919C231.255 45.0919 231.51 44.5824 231.51 44.0729C231.51 43.5633 231 43.3086 230.49 43.3086C227.05 43.6907 223.483 44.2002 220.042 44.9645C219.533 45.0919 219.278 45.474 219.405 45.9835C219.533 46.493 219.915 46.7478 220.297 46.7478Z" fill="#8EC8FD"/>
<path d="M200.039 52.2251C200.166 52.2251 200.293 52.2251 200.293 52.2251C203.606 51.0787 206.919 50.0596 210.359 49.0406C210.869 48.9132 211.124 48.4037 210.996 48.0216C210.869 47.5121 210.359 47.2573 209.977 47.3847C206.537 48.2763 203.097 49.4227 199.784 50.5691C199.274 50.6965 199.147 51.206 199.274 51.7155C199.274 52.0977 199.656 52.2251 200.039 52.2251Z" fill="#8EC8FD"/>
<path d="M180.799 60.8868C180.927 60.8868 181.054 60.8868 181.181 60.7594C184.239 59.1035 187.425 57.575 190.61 56.1738C190.992 55.919 191.247 55.4095 190.992 55.0274C190.737 54.6453 190.228 54.3905 189.846 54.6453C186.66 56.0464 183.347 57.7023 180.29 59.3582C179.907 59.613 179.652 60.1225 179.907 60.5047C180.162 60.632 180.417 60.8868 180.799 60.8868Z" fill="#8EC8FD"/>
<path d="M302.861 55.0274C306.046 56.3012 309.359 57.5749 312.544 59.1035C312.672 59.1035 312.799 59.2309 312.927 59.2309C313.309 59.2309 313.564 59.1035 313.691 58.7213C313.946 58.3392 313.691 57.8297 313.309 57.5749C310.124 56.0464 306.811 54.7726 303.498 53.4988C302.988 53.3715 302.606 53.4988 302.351 54.0084C302.224 54.3905 302.351 54.9 302.861 55.0274Z" fill="#8EC8FD"/>
<path d="M163.089 72.4782C163.216 72.4782 163.471 72.4782 163.598 72.3508C166.274 70.1854 169.205 68.1473 172.135 66.2367C172.517 65.9819 172.645 65.4724 172.39 65.0903C172.135 64.7081 171.626 64.5808 171.243 64.8355C168.313 66.7462 165.382 68.9116 162.579 71.077C162.197 71.3318 162.197 71.9687 162.452 72.3508C162.579 72.3508 162.834 72.4782 163.089 72.4782Z" fill="#8EC8FD"/>
<path d="M262.216 44.9645C265.656 45.3466 269.097 45.8561 272.537 46.493H272.664C273.046 46.493 273.429 46.2383 273.556 45.7288C273.683 45.2193 273.301 44.8371 272.792 44.7097C269.351 44.0729 265.784 43.5633 262.344 43.1812C261.834 43.1812 261.452 43.436 261.324 43.9455C261.452 44.5824 261.707 44.9645 262.216 44.9645Z" fill="#8EC8FD"/>
<path d="M74.4093 497.794C77.2123 500.342 79.7606 502.507 82.3089 504.418C82.4363 504.545 82.6911 504.545 82.8185 504.545C83.0733 504.545 83.3282 504.418 83.4556 504.163C83.7104 503.781 83.7104 503.271 83.3282 502.889C80.7799 500.978 78.3591 498.813 75.4286 496.265L75.3011 496.138C74.9189 495.756 74.4092 495.883 74.027 496.138C73.6448 496.52 73.7722 497.03 74.027 497.412L74.4093 497.794Z" fill="#8EC8FD"/>
<path d="M241.32 44.3276C244.888 44.2002 248.328 44.2002 251.896 44.3276C252.405 44.3276 252.788 43.9455 252.788 43.436C252.788 42.9265 252.405 42.5443 251.896 42.5443C248.328 42.4169 244.761 42.4169 241.32 42.5443C240.811 42.5443 240.429 42.9265 240.429 43.436C240.429 43.9455 240.811 44.3276 241.32 44.3276Z" fill="#8EC8FD"/>
<path d="M90.4633 174.508C90.7181 174.508 90.8455 174.381 91.1004 174.253C93.9034 171.578 96.4517 169.158 98.6177 166.865C99 166.483 99 165.974 98.6177 165.592C98.2355 165.21 97.7258 165.21 97.3436 165.592C95.1776 167.884 92.6293 170.305 89.8262 172.98C89.444 173.362 89.444 173.871 89.8262 174.253C90.0811 174.381 90.3359 174.508 90.4633 174.508Z" fill="#8EC8FD"/>
<path d="M105.116 159.223C105.371 159.223 105.625 159.095 105.753 158.968C108.174 156.166 110.34 153.363 112.251 150.561C112.506 150.179 112.378 149.669 111.996 149.415C111.614 149.16 111.104 149.287 110.849 149.669C108.938 152.472 106.772 155.147 104.479 157.949C104.224 158.331 104.224 158.841 104.606 159.223C104.734 159.223 104.861 159.223 105.116 159.223Z" fill="#8EC8FD"/>
<path d="M75.0463 188.902C75.3011 188.902 75.4285 188.774 75.6834 188.647C77.722 186.736 79.888 184.698 81.9266 182.788L83.3282 181.514C83.7104 181.132 83.7104 180.622 83.3282 180.24C82.9459 179.858 82.4363 179.858 82.054 180.24L80.6525 181.514C78.4865 183.425 76.4478 185.335 74.4092 187.373C74.027 187.755 74.027 188.265 74.4092 188.647C74.5367 188.774 74.7915 188.902 75.0463 188.902Z" fill="#8EC8FD"/>
<path d="M147.927 86.9993C148.181 86.9993 148.436 86.8719 148.564 86.7445C150.857 84.197 153.278 81.6494 155.826 79.2292C156.208 78.8471 156.208 78.3376 155.826 77.9555C155.444 77.5733 154.934 77.5733 154.552 77.9555C152.004 80.3756 149.456 83.0506 147.162 85.5981C146.907 85.9803 146.907 86.4898 147.29 86.8719C147.544 86.8719 147.672 86.9993 147.927 86.9993Z" fill="#8EC8FD"/>
<path d="M135.313 104.068C135.44 104.195 135.568 104.195 135.695 104.195C135.95 104.195 136.332 104.068 136.459 103.813C137.097 102.794 137.606 101.775 138.243 100.756C139.39 98.8455 140.664 96.8074 142.066 95.0241C142.32 94.642 142.193 94.1325 141.811 93.8777C141.429 93.623 140.919 93.7503 140.537 94.1325C139.135 96.0432 137.861 98.0812 136.714 99.9919C136.077 101.011 135.44 102.03 134.931 103.049C134.803 103.304 134.931 103.813 135.313 104.068Z" fill="#8EC8FD"/>
<path d="M126.012 123.047C126.139 123.047 126.266 123.175 126.394 123.175C126.776 123.175 127.031 123.047 127.158 122.665C128.56 119.736 130.089 116.424 131.618 113.112C131.873 112.73 131.618 112.22 131.235 111.965C130.853 111.711 130.344 111.965 130.089 112.348C128.56 115.659 126.903 118.971 125.629 121.901C125.502 122.283 125.629 122.793 126.012 123.047Z" fill="#8EC8FD"/>
<path d="M116.71 141.899C116.838 142.027 116.965 142.027 117.093 142.027C117.347 142.027 117.73 141.899 117.857 141.645C119.386 138.842 121.042 135.785 122.699 132.219C122.954 131.836 122.699 131.327 122.317 131.072C121.934 130.817 121.425 131.072 121.17 131.454C119.513 135.021 117.857 138.078 116.328 140.753C116.073 141.135 116.328 141.645 116.71 141.899Z" fill="#8EC8FD"/>
<path d="M47.2497 96.5674C51.336 89.341 48.7932 80.1633 41.5703 76.0684C34.3474 71.9736 25.1794 74.5123 21.0932 81.7387C17.0069 88.9651 19.5496 98.1428 26.7726 102.238C33.9955 106.332 43.1634 103.794 47.2497 96.5674Z" fill="#8EC8FD"/>
<path d="M49.6911 115.023C42.9382 115.023 37.332 109.545 37.332 102.667C37.332 95.9158 42.8108 90.3111 49.6911 90.3111C56.444 90.3111 62.0502 95.7884 62.0502 102.667C62.0502 109.418 56.444 115.023 49.6911 115.023ZM49.6911 91.8397C43.7027 91.8397 38.861 96.68 38.861 102.667C38.861 108.654 43.7027 113.494 49.6911 113.494C55.6795 113.494 60.5212 108.654 60.5212 102.667C60.5212 96.68 55.6795 91.8397 49.6911 91.8397Z" fill="#8EC8FD"/>
<path d="M454.483 16.5592C449.896 16.5592 446.201 12.8652 446.201 8.27958C446.201 3.69397 449.896 0 454.483 0C459.07 0 462.764 3.69397 462.764 8.27958C462.764 12.8652 459.07 16.5592 454.483 16.5592ZM454.483 1.52854C450.788 1.52854 447.73 4.58561 447.73 8.27958C447.73 11.9735 450.788 15.0306 454.483 15.0306C458.178 15.0306 461.236 11.9735 461.236 8.27958C461.236 4.58561 458.305 1.52854 454.483 1.52854Z" fill="#8EC8FD"/>
<path d="M584.062 168.267C574.506 168.267 566.734 160.497 566.734 150.943C566.734 141.39 574.506 133.62 584.062 133.62C593.618 133.62 601.39 141.39 601.39 150.943C601.39 160.497 593.618 168.267 584.062 168.267ZM584.062 135.021C575.398 135.021 568.263 142.154 568.263 150.816C568.263 159.478 575.398 166.611 584.062 166.611C592.726 166.611 599.861 159.478 599.861 150.816C599.988 142.154 592.853 135.021 584.062 135.021Z" fill="#8EC8FD"/>
<path d="M596.166 180.495C603.625 180.495 609.672 174.45 609.672 166.993C609.672 159.536 603.625 153.491 596.166 153.491C588.707 153.491 582.66 159.536 582.66 166.993C582.66 174.45 588.707 180.495 596.166 180.495Z" fill="#8EC8FD"/>
<path d="M15.0347 308.51C15.0347 312.713 11.722 316.025 7.51737 316.025C3.31274 316.025 0 312.713 0 308.51C0 304.306 3.31274 300.995 7.51737 300.995C11.722 300.995 15.0347 304.434 15.0347 308.51Z" fill="#8EC8FD"/>
<path d="M648.915 416.527C654.756 416.527 659.49 411.793 659.49 405.954C659.49 400.115 654.756 395.382 648.915 395.382C643.074 395.382 638.34 400.115 638.34 405.954C638.34 411.793 643.074 416.527 648.915 416.527Z" fill="#8EC8FD"/>
<path d="M186.533 298.957C193.286 299.339 197.363 291.696 193.541 286.219C172.517 256.54 117.475 188.265 63.3243 200.621C-5.47879 216.161 61.7953 278.449 102.44 288.512C130.089 295.263 166.147 297.938 186.533 298.957Z" fill="#64E4E6"/>
<path d="M49.1815 218.454L114.799 255.266" stroke="#0B334C" stroke-width="0.8869" stroke-miterlimit="10" stroke-linecap="round" stroke-linejoin="round"/>
<path d="M173.791 295.517C173.791 295.517 84.8571 169.031 99.5096 139.861C114.035 110.692 173.282 136.295 188.444 171.451C203.351 206.607 216.985 332.202 173.791 295.517Z" fill="#2CD0D1"/>
<path d="M131.363 152.854C131.363 152.854 167.548 188.647 175.83 222.53" stroke="#0B334C" stroke-width="0.8869" stroke-miterlimit="10" stroke-linecap="round" stroke-linejoin="round"/>
<path d="M478.181 391.815C466.587 376.02 454.355 357.933 457.031 338.571C459.834 317.426 479.073 302.396 486.336 282.525C488.502 276.411 489.521 270.042 489.394 263.545C489.266 257.431 497.039 254.884 500.479 259.979C509.27 273.226 511.818 290.295 506.467 305.708C504.811 310.421 502.517 315.134 502.135 320.101C501.498 330.419 509.143 339.081 513.857 348.252C518.189 356.532 520.228 366.085 519.846 375.384C519.463 383.026 517.297 390.796 512.456 396.783C507.614 402.77 499.842 406.719 492.197 405.7C484.679 404.68 478.309 399.458 478.181 391.815Z" fill="#2CD0D1"/>
<path d="M498.568 383.663C490.54 369.142 488.757 350.927 495.51 335.769C500.224 325.324 508.378 316.917 514.367 307.109C525.579 288.639 528 265.074 520.737 244.694C518.571 238.707 516.278 230.555 521.629 227.115C524.432 225.332 528.255 225.969 531.44 227.115C542.907 231.446 551.699 241.509 556.031 252.973C560.235 264.437 560.363 277.175 557.942 289.276C556.158 298.32 552.973 307.109 552.718 316.28C552.463 323.668 554.12 331.056 555.649 338.316C558.707 352.71 561.637 367.486 559.216 381.88C557.305 392.834 548.004 414.871 533.988 413.724C520.483 412.833 504.556 394.363 498.568 383.663Z" fill="#64E4E6"/>
<path d="M520.992 365.066C520.483 357.041 522.394 349.144 524.815 341.501C528.51 330.037 533.861 319.21 537.429 307.746C543.29 289.276 544.691 269.405 541.633 250.298" stroke="#0B334C" stroke-width="0.8869" stroke-miterlimit="10" stroke-linecap="round" stroke-linejoin="round"/>
<path d="M507.996 396.146C507.996 396.146 491.432 380.097 491.432 355.513C491.432 355.513 489.903 340.227 502.517 324.177" stroke="#0B334C" stroke-width="0.8869" stroke-miterlimit="10" stroke-linecap="round" stroke-linejoin="round"/>
<path d="M521.884 411.559C515.131 403.534 513.73 391.688 517.042 381.752C520.483 371.817 528.255 363.665 537.429 358.57C544.054 354.876 551.444 352.71 558.579 349.781C572.212 344.176 584.954 335.132 592.344 322.267C597.313 313.605 599.606 303.67 605.085 295.39C610.181 287.875 617.571 282.397 625.471 277.812C630.568 274.882 636.811 278.831 636.556 284.69C636.046 294.626 636.301 304.561 635.282 314.497C633.88 328.89 629.548 343.794 618.591 353.347C614.896 356.532 610.436 359.079 606.104 361.499C600.243 364.811 594.255 368.123 588.394 371.435C582.788 374.619 577.054 377.804 572.722 382.517C565.332 390.542 562.656 402.133 554.757 409.648C545.838 418.055 529.784 420.985 521.884 411.559Z" fill="#2CD0D1"/>
<path d="M543.035 393.981C543.29 391.561 544.691 389.395 546.093 387.484C559.598 369.652 584.444 364.174 599.988 348.125C608.398 339.463 613.494 328.254 618.591 317.299C622.031 309.911 625.344 302.396 627.382 294.498" stroke="#0B334C" stroke-width="0.8869" stroke-miterlimit="10" stroke-linecap="round" stroke-linejoin="round"/>
<path d="M554.884 494.864H482.641L477.29 405.954H560.235L554.884 494.864Z" fill="#FCB13A"/>
<path d="M568.135 396.146H469.39V417.291H568.135V396.146Z" fill="#FCB13A"/>
<path d="M491.56 417.291H559.726L491.56 424.042V417.291Z" fill="#0B334C"/>
<path d="M133.274 398.694L103.205 388.886L65.4904 503.399C64.9807 505.437 71.0965 509.258 79.251 511.933C87.4054 514.608 94.668 515.245 95.4324 513.207L133.274 398.694Z" fill="#8EC8FD"/>
<path d="M68.2935 501.615L80.2703 505.946" stroke="#0B334C" stroke-width="0.8869" stroke-miterlimit="10" stroke-linecap="round" stroke-linejoin="round"/>
<path d="M193.668 351.691L82.6911 315.134L94.1583 280.487C104.224 249.916 137.224 233.229 167.93 243.292C198.51 253.355 215.201 286.346 205.135 317.044L193.668 351.691Z" fill="#0B334C"/>
<path d="M88.5521 302.523L116.073 311.185" stroke="#0B334C" stroke-width="0.8869" stroke-miterlimit="10" stroke-linecap="round"/>
<path d="M90.4633 299.211L107.027 304.434" stroke="#0B334C" stroke-width="0.8869" stroke-miterlimit="10" stroke-linecap="round"/>
<path d="M134.93 418.055L44.0849 388.121C40.7722 386.975 38.9884 383.536 40.1351 380.224L64.9807 304.943C66.1274 301.632 69.5676 299.848 72.8803 300.995L163.726 330.929L134.93 418.055Z" fill="#F64652"/>
<path d="M181.436 433.341L130.216 416.527L159.012 329.273L210.359 346.214C213.672 347.36 215.456 350.8 214.309 354.111L189.463 429.392C188.317 432.704 184.749 434.487 181.436 433.341Z" fill="#D1353F"/>
<path d="M125.272 361.518C127.369 348.602 118.595 336.432 105.676 334.336C92.7561 332.24 80.5829 341.011 78.4861 353.927C76.3894 366.843 85.163 379.013 98.0827 381.109C111.002 383.206 123.176 374.434 125.272 361.518Z" fill="#0B334C"/>
<path d="M472.575 514.353H199.402C187.68 514.353 178.251 504.927 178.251 493.208V142.918C178.251 131.2 187.68 121.774 199.402 121.774H472.575C484.297 121.774 493.726 131.2 493.726 142.918V493.208C493.726 504.927 484.297 514.353 472.575 514.353Z" fill="#1F5B99"/>
<path d="M481.239 139.734H190.865V479.452H481.239V139.734Z" fill="#8EC8FD"/>
<path d="M382.367 485.82H289.737V498.686H382.367V485.82Z" fill="#0C3D6E"/>
<path d="M232.019 224.568H460.981V364.556C460.981 376.785 451.042 386.848 438.683 386.848H232.019V224.568Z" fill="#E0F9FF"/>
<path d="M460.981 361.372V368.632C460.981 387.612 445.691 402.897 426.707 402.897H256.483C231.51 402.897 211.124 382.644 211.124 357.551V195.016H418.552V360.608C418.552 363.665 419.189 366.722 420.336 369.524C423.521 377.039 430.784 382.389 439.32 382.517C451.297 382.771 460.981 373.218 460.981 361.372Z" fill="white"/>
<path d="M280.708 225.971V242.608H276.097L269.775 235.05V242.608H264.308V225.971H268.919L275.241 233.529V225.971H280.708ZM297.244 238.378V242.608H283.411V225.971H296.935V230.201H288.925V232.15H295.96V236.191H288.925V238.378H297.244ZM326.243 225.971L320.919 242.608H314.906L312.22 233.719L309.391 242.608H303.378L298.054 225.971H303.83L306.729 235.43L309.795 225.971H314.953L317.853 235.549L320.919 225.971H326.243ZM333.692 242.989C332.314 242.989 330.967 242.838 329.652 242.537C328.352 242.22 327.283 241.8 326.443 241.277L328.249 237.189C329.042 237.649 329.929 238.021 330.911 238.306C331.894 238.576 332.837 238.71 333.74 238.71C334.516 238.71 335.071 238.639 335.403 238.497C335.736 238.338 335.903 238.108 335.903 237.807C335.903 237.459 335.681 237.197 335.237 237.023C334.809 236.849 334.096 236.658 333.098 236.452C331.814 236.183 330.745 235.898 329.889 235.597C329.034 235.28 328.289 234.773 327.655 234.076C327.021 233.363 326.704 232.404 326.704 231.2C326.704 230.154 326.997 229.203 327.584 228.347C328.17 227.492 329.042 226.818 330.198 226.327C331.371 225.836 332.789 225.59 334.453 225.59C335.594 225.59 336.711 225.717 337.804 225.971C338.913 226.208 339.888 226.565 340.728 227.04L339.04 231.105C337.408 230.281 335.863 229.869 334.405 229.869C332.963 229.869 332.242 230.217 332.242 230.914C332.242 231.247 332.456 231.501 332.884 231.675C333.312 231.833 334.017 232.008 334.999 232.198C336.267 232.436 337.337 232.713 338.208 233.03C339.08 233.331 339.832 233.83 340.466 234.527C341.116 235.224 341.441 236.175 341.441 237.379C341.441 238.425 341.147 239.376 340.561 240.232C339.975 241.071 339.095 241.745 337.923 242.252C336.766 242.743 335.356 242.989 333.692 242.989Z" fill="#0B334C"/>
<path d="M389.757 235.904H369.371V237.56H389.757V235.904Z" fill="#00A2DD"/>
<path d="M399.185 241.254H369.371V242.91H399.185V241.254Z" fill="#00A2DD"/>
<path d="M256.992 235.904H236.606V237.56H256.992V235.904Z" fill="#00A2DD"/>
<path d="M256.992 241.254H227.178V242.91H256.992V241.254Z" fill="#00A2DD"/>
<path d="M397.911 253.228H228.452V254.884H397.911V253.228Z" fill="#00A2DD"/>
<path d="M293.178 279.723H228.197V361.372H293.178V279.723Z" fill="#FCB13A"/>
<path d="M346.309 279.723H298.402V284.436H346.309V279.723Z" fill="#8EC8FD"/>
<path d="M346.309 290.55H298.402V295.263H346.309V290.55Z" fill="#8EC8FD"/>
<path d="M346.309 301.504H298.402V306.217H346.309V301.504Z" fill="#8EC8FD"/>
<path d="M346.309 312.331H298.402V317.044H346.309V312.331Z" fill="#8EC8FD"/>
<path d="M346.309 323.158H298.402V327.871H346.309V323.158Z" fill="#8EC8FD"/>
<path d="M346.309 334.113H298.402V338.826H346.309V334.113Z" fill="#8EC8FD"/>
<path d="M346.309 344.94H298.402V349.653H346.309V344.94Z" fill="#8EC8FD"/>
<path d="M346.309 355.767H298.402V360.48H346.309V355.767Z" fill="#8EC8FD"/>
<path d="M398.166 312.331H354.081V317.044H398.166V312.331Z" fill="#8EC8FD"/>
<path d="M398.166 323.158H354.081V327.871H398.166V323.158Z" fill="#8EC8FD"/>
<path d="M398.166 334.113H354.081V338.826H398.166V334.113Z" fill="#8EC8FD"/>
<path d="M398.166 344.94H354.081V349.653H398.166V344.94Z" fill="#8EC8FD"/>
<path d="M398.166 355.767H354.081V360.48H398.166V355.767Z" fill="#8EC8FD"/>
<path d="M397.784 279.723H354.336V297.555H397.784V279.723Z" fill="#00A2DD"/>
<path d="M448.367 356.532C447.602 367.868 437.664 369.524 437.664 369.524H420.463C419.317 366.849 418.68 363.792 418.68 360.608V205.971H427.853L427.344 212.722H448.494C448.367 212.722 449.131 345.195 448.367 356.532Z" fill="#D4F7FF"/>
<path d="M437.664 369.779C431.166 369.779 425.815 364.429 425.815 357.933V205.971H428.873V357.933C428.873 362.773 432.822 366.722 437.664 366.722C442.506 366.722 446.456 362.773 446.456 357.933V212.722H449.513V357.933C449.513 364.429 444.162 369.779 437.664 369.779Z" fill="white"/>
<path d="M204.498 160.751H467.479" stroke="#0B334C" stroke-width="0.8869" stroke-miterlimit="10" stroke-linecap="round" stroke-linejoin="round"/>
<path d="M259.795 469.134C267.677 469.134 274.066 462.747 274.066 454.868C274.066 446.988 267.677 440.601 259.795 440.601C251.914 440.601 245.525 446.988 245.525 454.868C245.525 462.747 251.914 469.134 259.795 469.134Z" stroke="#0B334C" stroke-width="0.8869" stroke-miterlimit="10" stroke-linecap="round" stroke-linejoin="round"/>
<path d="M310.633 469.134C318.514 469.134 324.904 462.747 324.904 454.868C324.904 446.988 318.514 440.601 310.633 440.601C302.752 440.601 296.363 446.988 296.363 454.868C296.363 462.747 302.752 469.134 310.633 469.134Z" stroke="#0B334C" stroke-width="0.8869" stroke-miterlimit="10" stroke-linecap="round" stroke-linejoin="round"/>
<path d="M361.471 469.134C369.352 469.134 375.741 462.747 375.741 454.868C375.741 446.988 369.352 440.601 361.471 440.601C353.59 440.601 347.201 446.988 347.201 454.868C347.201 462.747 353.59 469.134 361.471 469.134Z" stroke="#0B334C" stroke-width="0.8869" stroke-miterlimit="10" stroke-linecap="round" stroke-linejoin="round"/>
<path d="M412.309 469.134C420.19 469.134 426.579 462.747 426.579 454.868C426.579 446.988 420.19 440.601 412.309 440.601C404.428 440.601 398.039 446.988 398.039 454.868C398.039 462.747 404.428 469.134 412.309 469.134Z" stroke="#0B334C" stroke-width="0.8869" stroke-miterlimit="10" stroke-linecap="round" stroke-linejoin="round"/>
<path d="M261.961 431.303H410.143" stroke="#0B334C" stroke-width="0.8869" stroke-miterlimit="10" stroke-linecap="round" stroke-linejoin="round"/>
<path d="M421.992 150.688C421.992 152.472 420.463 154 418.68 154C416.896 154 415.367 152.472 415.367 150.688C415.367 148.905 416.896 147.377 418.68 147.377C420.463 147.377 421.992 148.905 421.992 150.688Z" stroke="#0B334C" stroke-width="0.8869" stroke-miterlimit="10" stroke-linecap="round" stroke-linejoin="round"/>
<path d="M438.429 150.688C438.429 152.472 436.9 154 435.116 154C433.332 154 431.803 152.472 431.803 150.688C431.803 148.905 433.332 147.377 435.116 147.377C437.027 147.377 438.429 148.905 438.429 150.688Z" stroke="#0B334C" stroke-width="0.8869" stroke-miterlimit="10" stroke-linecap="round" stroke-linejoin="round"/>
<path d="M454.992 150.688C454.992 152.472 453.463 154 451.68 154C449.896 154 448.367 152.472 448.367 150.688C448.367 148.905 449.896 147.377 451.68 147.377C453.463 147.377 454.992 148.905 454.992 150.688Z" stroke="#0B334C" stroke-width="0.8869" stroke-miterlimit="10" stroke-linecap="round" stroke-linejoin="round"/>
<path d="M521.247 529.511H495.51C473.977 529.511 456.521 512.06 456.521 490.533V449.645H560.235V490.533C560.235 512.06 542.78 529.511 521.247 529.511Z" fill="#F64652"/>
<path d="M508.378 463.529C537.018 463.529 560.235 457.427 560.235 449.9C560.235 442.372 537.018 436.27 508.378 436.27C479.738 436.27 456.521 442.372 456.521 449.9C456.521 457.427 479.738 463.529 508.378 463.529Z" fill="#F66F78"/>
<path d="M556.541 449.9C556.541 452.575 552.718 455.122 546.348 457.16C537.556 459.963 523.795 461.619 508.378 461.619C492.961 461.619 479.201 459.835 470.409 457.16C464.039 455.122 460.216 452.702 460.216 449.9C460.216 443.403 481.749 438.181 508.251 438.181C535.008 438.181 556.541 443.531 556.541 449.9Z" fill="#E33440"/>
<path d="M546.347 457.16C537.556 459.963 523.795 461.619 508.378 461.619C492.961 461.619 479.201 459.835 470.409 457.16C476.907 453.084 491.432 450.282 508.378 450.282C525.324 450.282 539.849 453.084 546.347 457.16Z" fill="#0B334C"/>
<path d="M555.394 460.472C557.05 459.453 558.324 458.689 559.981 458.052C561.51 457.415 563.039 456.778 564.695 456.269C568.008 455.25 571.575 454.613 575.525 454.995C575.78 454.995 575.907 454.995 576.29 455.122C576.799 455.25 577.309 455.377 577.691 455.504C578.201 455.632 578.583 455.887 578.965 456.014C579.347 456.269 579.73 456.523 579.985 456.651C580.622 457.16 581.131 457.67 581.514 458.179C582.023 458.689 582.405 459.198 582.66 459.708C583.934 461.619 584.571 463.529 585.081 465.313C585.973 468.879 586.228 472.446 585.846 476.012C585.081 482.891 582.278 489.897 577.054 494.992C574.506 497.539 571.193 499.322 567.88 500.596C564.568 501.743 561.127 502.38 557.687 502.762V494.227C563.039 494.864 568.517 493.336 571.958 489.642C575.525 486.075 576.799 480.598 576.799 475.375C576.799 472.828 576.29 470.153 575.653 467.86C575.27 466.714 574.761 465.695 574.378 465.058C574.251 464.93 574.124 464.803 574.124 464.676C573.996 464.548 573.996 464.676 573.996 464.548C573.996 464.548 573.996 464.676 574.124 464.676C574.251 464.676 574.251 464.676 574.378 464.803C574.506 464.803 574.633 464.93 574.761 464.93C574.761 464.93 574.506 464.93 574.378 464.93C570.046 464.421 564.185 465.949 559.216 467.86L555.394 460.472Z" fill="#F64652"/>
<path d="M91.3552 469.516C91.3552 469.516 98.8726 412.833 129.834 409.903C160.923 407.101 173.537 440.219 187.042 448.244C202.842 457.67 225.521 479.197 212.27 499.195C199.019 519.193 145.506 538.428 112.888 515.117C83.0733 493.973 91.3552 469.516 91.3552 469.516Z" fill="#FCB13A"/>
<path d="M111.996 474.993C120.023 470.662 131.873 477.286 131.873 477.286C131.873 477.286 119.513 477.541 115.054 481.107" stroke="#0B334C" stroke-width="0.8869" stroke-miterlimit="10" stroke-linecap="round" stroke-linejoin="round"/>
<path d="M233.803 507.475C232.147 509.385 230.49 511.296 228.579 512.825C228.579 513.334 228.452 513.844 228.324 514.353C228.324 514.481 228.324 514.481 228.324 514.608C232.911 520.085 236.224 523.779 236.224 523.779L240.683 521.614L233.803 507.475Z" fill="#FA9778"/>
<path d="M240.046 520.34C240.046 520.34 238.39 523.524 235.459 522.887L235.714 524.289C235.842 525.435 236.351 526.581 236.861 527.728L236.988 528.11L250.876 520.595C250.367 519.576 249.22 519.066 248.073 519.193L240.046 520.34Z" fill="#0B334C"/>
<path d="M233.803 533.078C232.274 535.116 230.618 537.154 228.961 539.192C231.382 541.103 233.93 543.141 236.351 545.051C237.753 544.16 239.154 543.268 240.429 542.249C238.263 539.065 235.969 536.007 233.803 533.078Z" fill="#FA9778"/>
<path d="M240.174 541.739C240.174 541.739 237.88 544.924 234.95 544.032L235.332 545.433C235.459 546.58 235.714 547.599 236.224 548.745L236.351 549.127L250.876 542.886C250.367 541.867 249.348 541.23 248.201 541.23L240.174 541.739Z" fill="#0B334C"/>
<path d="M177.359 479.069L202.969 478.687L232.529 520.849L239.664 517.028L213.29 463.784C212.27 461.619 210.104 460.09 207.811 459.581L164.108 451.301L130.344 458.307C130.344 458.307 126.649 469.134 130.598 477.413C134.548 485.693 195.069 512.952 195.069 512.952L232.911 543.777L240.046 538.555L177.359 479.069Z" fill="#0B334C"/>
<path d="M134.293 466.077C134.293 466.077 134.293 474.229 137.606 477.286C140.919 480.343 196.344 509.385 196.344 509.385L233.039 541.994" stroke="white" stroke-width="0.2956" stroke-miterlimit="10" stroke-linecap="round" stroke-linejoin="round"/>
<path d="M176.212 476.649L204.88 475.248L233.166 518.557" stroke="white" stroke-width="0.2956" stroke-miterlimit="10" stroke-linecap="round" stroke-linejoin="round"/>
<path d="M231.764 519.448L238.9 515.627" stroke="white" stroke-width="0.2956" stroke-miterlimit="10" stroke-linecap="round" stroke-linejoin="round"/>
<path d="M231.892 542.886L238.772 537.791" stroke="white" stroke-width="0.2956" stroke-miterlimit="10" stroke-linecap="round" stroke-linejoin="round"/>
<path d="M202.969 478.432V476.267" stroke="white" stroke-width="0.2956" stroke-miterlimit="10" stroke-linecap="round" stroke-linejoin="round"/>
<path d="M204.753 477.031L203.224 478.687" stroke="white" stroke-width="0.2956" stroke-miterlimit="10" stroke-linecap="round" stroke-linejoin="round"/>
<path d="M175.066 412.451C177.359 412.833 179.525 413.342 181.819 413.979C182.073 411.304 182.201 408.502 182.201 405.7V405.445C182.201 404.298 181.564 403.407 180.672 402.897L180.035 398.821C179.78 399.585 179.652 400.095 179.652 400.095C179.652 400.095 179.907 395.382 179.27 395.509C178.506 395.637 178.506 401.623 178.506 401.623C178.506 401.623 176.722 399.331 176.085 399.84C175.575 400.222 176.34 403.152 176.722 404.553C176.467 405.827 175.703 409.521 175.066 412.451Z" fill="#FA9778"/>
<path d="M180.927 407.228C180.162 407.356 179.398 406.846 179.27 405.954L177.741 394.872C177.614 394.108 178.251 393.344 179.015 393.217C179.78 393.089 180.544 393.599 180.672 394.49L182.201 405.572C182.328 406.336 181.819 407.101 180.927 407.228Z" fill="#0B334C"/>
<path d="M181.054 397.42C180.417 397.675 179.907 398.184 179.652 398.821C179.525 399.203 179.525 399.713 179.907 399.84C180.162 399.968 180.417 399.968 180.672 399.84C180.035 400.222 179.652 400.859 179.525 401.496C179.525 401.751 179.525 402.006 179.652 402.133C179.78 402.388 180.162 402.515 180.417 402.515C180.672 402.515 181.054 402.388 181.309 402.26C180.672 403.025 180.417 403.916 180.544 404.935C180.544 405.063 180.672 405.317 180.799 405.317C180.927 405.317 181.054 405.317 181.181 405.317C181.564 405.317 181.818 405.19 182.201 405.063C182.71 404.808 182.965 404.171 182.965 403.534C182.965 403.279 182.965 403.025 182.965 402.897C182.965 402.515 182.838 402.006 182.456 401.878C183.093 400.987 182.71 399.585 181.946 398.821C181.946 398.566 181.946 398.312 181.818 398.057C181.691 397.802 181.309 397.547 181.054 397.42Z" fill="#FA9778"/>
<path d="M150.985 414.743L167.803 433.595C167.803 433.595 172.645 409.266 174.811 409.139C176.849 409.011 185.386 410.412 185.896 411.177C186.405 411.941 178.888 447.352 174.046 449.39C169.205 451.428 155.062 439.837 155.062 439.837C155.062 439.837 142.958 419.329 150.985 414.743Z" fill="white"/>
<path d="M167.548 436.907L167.803 433.595L169.205 437.035" stroke="#0B334C" stroke-width="0.2956" stroke-miterlimit="10" stroke-linecap="round" stroke-linejoin="round"/>
<path d="M162.069 445.187C162.069 445.187 158.247 428.755 156.081 424.297C156.081 424.297 164.873 439.073 165 446.843L162.069 445.187Z" fill="#0B334C"/>
<path d="M150.985 414.743C148.819 413.215 142.83 413.087 142.83 413.087C142.83 413.087 141.811 416.781 140.664 417.291C139.645 417.8 134.803 415.89 133.784 415.508C133.656 414.998 128.687 418.31 126.012 421.112C125.629 421.494 125.375 422.004 125.375 422.641C125.375 430.284 130.344 458.561 130.344 458.561C137.606 457.925 164.108 451.556 164.108 451.556C164.108 451.556 153.023 416.272 150.985 414.743Z" fill="white"/>
<path d="M179.653 456.651C179.653 456.651 184.367 455.632 184.112 454.995C183.857 454.358 177.869 455.122 177.869 455.122C177.869 455.122 179.27 452.829 178.506 452.447C177.996 452.065 175.32 453.976 174.174 454.868H174.046C173.792 454.868 173.027 454.868 171.88 454.995C172.008 455.759 172.008 456.523 172.135 457.288C172.39 458.562 172.517 459.708 172.772 460.982C173.409 460.854 174.046 460.727 174.683 460.6C176.467 460.982 180.29 461.873 180.417 461.491C180.672 460.854 177.996 459.708 177.996 459.708C177.996 459.708 182.71 461.109 182.838 460.217C182.965 459.326 179.015 458.434 179.015 458.434C179.015 458.434 184.112 458.307 183.857 457.542C183.73 456.651 179.653 456.651 179.653 456.651Z" fill="#FA9778"/>
<path d="M131.873 418.565C129.197 418.31 126.649 419.711 125.12 421.877C123.463 424.297 121.425 428.373 121.17 433.468C120.788 442.13 121.552 462.51 128.05 464.676C134.548 466.968 172.262 464.803 173.791 464.039C175.32 463.275 173.537 454.103 173.537 454.103L136.969 454.358C136.969 454.358 136.969 429.901 137.479 427.736C137.861 426.08 137.351 419.074 131.873 418.565Z" fill="white"/>
<path d="M137.096 435.888V454.485L150.093 454.358L138.753 453.339L137.096 435.888Z" fill="#0B334C"/>
<path d="M132.637 455.122L137.606 454.103L135.313 455.759" stroke="#0B334C" stroke-width="0.2956" stroke-miterlimit="10" stroke-linecap="round" stroke-linejoin="round"/>
<path d="M125.884 421.622C128.687 421.112 134.293 420.985 135.695 427.099" stroke="#0B334C" stroke-width="0.2956" stroke-miterlimit="10" stroke-linecap="round" stroke-linejoin="round"/>
<path d="M142.32 412.578L140.027 401.623L131.235 403.407L133.401 413.47C136.332 413.979 139.645 413.852 142.32 412.578Z" fill="#FA9778"/>
<path d="M141.429 408.502L141.811 410.285C141.429 410.413 140.919 410.413 140.537 410.54C138.625 410.54 135.695 410.285 133.529 408.629C133.019 408.247 132.51 407.61 131.873 406.846V406.591C132.127 406.846 132.255 406.973 132.382 407.101C134.548 408.757 137.351 409.139 139.39 409.011C140.154 409.011 140.791 408.884 141.429 408.502Z" fill="#0B334C"/>
<path d="M139.9 414.106C139.645 413.979 139.39 414.234 139.263 414.489C139.135 415.635 138.88 418.565 139.135 418.947C139.39 419.456 141.174 421.24 141.174 421.24L143.212 420.475C143.212 420.475 143.467 418.183 142.83 417.291C142.32 416.399 141.301 414.361 139.9 414.106Z" fill="#0B334C"/>
<path d="M141.301 420.73L145.251 441.62C145.251 441.62 150.602 447.989 151.112 447.989C151.622 447.989 152.131 441.62 151.749 440.729C151.367 439.837 143.085 419.711 143.085 419.711L141.301 420.73Z" fill="#0B334C"/>
<path d="M132.892 416.145C132.892 416.145 131.49 411.686 132.255 411.559C133.019 411.432 139.517 412.96 140.027 413.47C140.409 413.724 139.645 416.399 139.772 417.8C139.772 418.183 139.39 418.565 139.008 418.437L132.892 416.145Z" fill="white"/>
<path d="M139.517 413.724C139.517 413.724 141.301 417.8 142.066 417.8C142.703 417.8 144.486 413.087 144.486 413.087L142.575 411.177C142.448 411.049 142.193 411.049 141.938 411.049C141.301 411.686 139.772 412.705 139.517 413.724Z" fill="white"/>
<path d="M145.761 400.477C145.761 401.369 145.633 402.133 145.506 402.897C144.996 404.553 144.104 406.082 143.212 407.228C142.32 408.374 140.919 409.011 139.39 409.139C137.479 409.139 134.548 408.884 132.382 407.228C132.127 407.101 132 406.846 131.745 406.591C131.49 406.336 131.236 405.954 130.981 405.7C130.471 405.063 129.961 404.426 129.452 403.661C128.305 404.044 126.394 403.152 125.757 402.133C124.992 400.987 125.247 399.458 126.394 398.821L126.521 398.694C124.865 394.618 126.649 389.777 130.726 387.739C135.185 385.574 140.664 387.485 142.703 391.943C143.595 393.981 144.486 396.019 144.996 397.802C145.124 398.312 145.251 398.821 145.378 399.203C145.633 399.585 145.761 400.095 145.761 400.477Z" fill="#FA9778"/>
<path d="M138.498 397.42C138.753 397.802 138.88 398.057 139.135 398.439C139.39 398.694 139.517 399.076 139.645 399.458C139.772 399.84 140.027 400.222 139.9 400.732C139.772 401.241 139.39 401.496 139.008 401.751C139.135 401.369 139.39 400.987 139.263 400.732C139.263 400.477 139.008 400.095 138.88 399.84C138.753 399.458 138.625 399.203 138.498 398.694C138.498 398.312 138.498 397.802 138.498 397.42Z" fill="#0B334C"/>
<path d="M135.95 396.019C135.568 396.019 135.058 396.146 134.676 396.274C134.293 396.401 133.911 396.656 133.656 397.165C133.656 397.293 133.529 397.293 133.402 397.165L133.274 397.038C133.274 396.783 133.402 396.528 133.656 396.274C133.784 396.019 134.039 395.891 134.293 395.764C134.803 395.509 135.44 395.382 135.95 395.509C136.077 395.509 136.205 395.764 136.205 395.891C136.205 396.019 136.205 396.019 135.95 396.019Z" fill="#0B334C"/>
<path d="M140.154 394.618C140.664 394.235 141.174 394.108 141.811 394.235C142.066 394.235 142.448 394.363 142.575 394.49C142.83 394.618 143.085 394.872 143.212 395.127C143.212 395.255 143.212 395.255 143.212 395.382H143.085C142.703 395.127 142.32 395 141.811 395C141.429 395 140.919 395.127 140.537 395.255C140.409 395.255 140.154 395.255 140.154 395C140.027 394.872 140.027 394.745 140.154 394.618Z" fill="#0B334C"/>
<path d="M142.703 397.802C142.83 398.439 142.575 399.076 142.193 399.203C141.811 399.331 141.301 398.821 141.174 398.184C141.046 397.547 141.301 396.91 141.683 396.783C142.066 396.656 142.575 397.038 142.703 397.802Z" fill="#0B334C"/>
<path d="M136.587 399.076C136.714 399.713 136.459 400.35 136.077 400.477C135.695 400.604 135.185 400.095 135.058 399.458C134.931 398.821 135.185 398.184 135.568 398.057C135.95 397.929 136.332 398.312 136.587 399.076Z" fill="#0B334C"/>
<path d="M139.772 403.407C139.263 403.661 138.88 403.789 138.498 403.916C138.116 404.044 137.606 404.044 137.097 403.916C136.714 403.789 136.205 403.661 135.95 403.407C135.568 403.152 135.313 402.897 135.058 402.642C134.931 402.515 134.931 402.388 135.058 402.26C135.185 402.133 135.313 402.133 135.44 402.26C136.077 402.642 136.714 402.77 137.224 402.77C137.479 402.77 137.734 402.642 137.988 402.515C138.243 402.388 138.498 402.133 138.498 402.006C138.753 401.496 139.39 401.369 139.9 401.623C140.409 401.878 140.537 402.515 140.282 403.025C140.154 403.152 140.154 403.279 140.027 403.279L139.772 403.407Z" fill="#0B334C"/>
<path d="M140.282 403.407C140.792 403.534 141.174 403.534 141.683 403.407C142.193 403.279 142.575 403.152 142.958 402.897C143.34 402.642 143.722 402.388 143.849 402.006C144.104 401.623 144.232 401.241 144.359 400.987C144.359 400.859 144.359 400.732 144.232 400.604C144.104 400.604 143.977 400.604 143.977 400.732C143.595 401.241 143.085 401.751 142.448 401.878C142.193 402.006 141.938 402.006 141.683 401.878C141.429 401.878 141.046 401.751 140.919 401.623C140.537 401.241 139.9 401.369 139.517 401.751C139.135 402.133 139.263 402.77 139.645 403.152C139.772 403.279 139.9 403.279 140.027 403.279L140.282 403.407Z" fill="#0B334C"/>
<path d="M133.656 392.197C134.421 391.433 135.313 391.051 136.332 390.796C137.351 390.542 138.371 390.542 139.263 390.924C138.753 391.051 138.243 391.051 137.861 391.178C137.351 391.306 136.969 391.306 136.459 391.433C135.44 391.561 134.548 391.815 133.656 392.197Z" fill="#FA8864"/>
<path d="M135.695 393.344C135.95 392.834 136.332 392.707 136.842 392.58C137.351 392.452 137.734 392.58 138.116 392.834C137.861 392.962 137.734 392.962 137.479 393.089C137.224 393.089 137.097 393.216 136.842 393.216C136.587 393.216 136.205 393.216 135.695 393.344Z" fill="#FA8864"/>
<path d="M146.015 103.049C165.578 103.049 181.436 87.1949 181.436 67.6378C181.436 48.0808 165.578 32.2267 146.015 32.2267C126.453 32.2267 110.595 48.0808 110.595 67.6378C110.595 87.1949 126.453 103.049 146.015 103.049Z" fill="#FCB13A"/>
<path d="M138.625 48.149H153.405L150.985 71.8413H141.174L138.625 48.149ZM138.753 80.3756C138.753 76.6817 141.683 73.8793 146.015 73.8793C150.348 73.8793 153.278 76.6817 153.278 80.3756C153.278 83.9422 150.348 86.9993 146.015 86.9993C141.683 86.9993 138.753 84.0696 138.753 80.3756Z" fill="white"/>
<path d="M558.452 92.6039C558.452 96.0432 558.069 99.355 557.432 102.667C557.305 103.304 557.178 103.941 556.923 104.705C551.571 125.468 532.714 140.88 510.162 140.88C483.533 140.88 462 119.353 462 92.7313C462 77.7007 468.88 64.326 479.583 55.5369C480.093 55.1548 480.475 54.7726 480.985 54.3905C489.139 48.149 499.205 44.5824 510.29 44.5824C522.776 44.5824 534.116 49.2954 542.652 57.0654C547.494 61.5237 551.444 66.8735 554.247 72.9877C556.923 78.8471 558.452 85.5981 558.452 92.6039Z" fill="#00A2DD"/>
<path d="M479.965 63.5617C479.328 65.345 478.818 67.1283 478.181 68.9116C477.799 70.1854 477.417 71.4592 477.799 72.7329C478.309 74.3889 480.093 75.4079 480.985 76.8091C481.876 78.2102 482.131 79.9935 483.023 81.3947C484.807 84.197 488.757 84.3244 492.069 84.5791C498.695 85.0886 505.83 87.2541 509.398 92.8587C510.417 94.5146 511.181 96.6801 510.672 98.5907C510.29 99.8645 509.525 100.884 509.015 102.03C507.359 104.96 506.977 108.908 509.27 111.456C510.162 112.475 511.436 113.112 512.456 114.131C514.749 116.296 515.513 119.481 516.533 122.41C517.425 124.958 518.444 127.506 519.846 129.926C520.737 131.454 521.629 132.983 523.158 134.002C524.56 135.021 526.598 135.403 528.127 134.639C530.548 133.365 530.803 129.926 531.44 127.251C531.95 124.703 533.224 122.283 534.88 120.372C536.154 118.844 537.811 117.57 538.83 115.787C539.849 114.003 540.104 111.965 540.232 109.927C540.359 107.38 540.104 104.705 539.085 102.412C538.066 100.119 536.027 98.0812 533.606 97.4443C531.185 96.8074 528 97.1896 526.726 94.8968C526.471 94.3872 526.344 93.8777 525.961 93.3682C524.815 91.4576 521.884 91.9671 519.591 92.0944C514.876 92.2218 510.29 89.1647 508.888 84.7065C508.761 84.197 508.633 83.6875 508.633 83.178C508.761 81.9042 510.162 81.2673 511.309 81.0125C512.583 80.8852 513.857 81.0125 515.004 80.7578C516.66 80.3756 518.062 78.9745 518.444 77.3186C519.081 74.8984 517.68 72.4782 517.425 69.9306C517.17 65.2176 521.12 60.5046 519.463 56.1738C518.062 52.6072 513.347 51.3334 509.525 51.9703C505.703 52.6072 502.263 54.6452 498.44 55.5369C491.178 57.3202 482.896 54.9 479.965 63.5617Z" fill="#2CD0D1"/>
<path d="M554.247 72.8603C553.1 73.752 552.336 75.4079 551.062 76.1721C549.405 77.1912 547.239 76.5543 545.583 75.6626C543.927 74.771 542.27 73.4972 540.359 73.3698C539.085 73.2425 537.683 73.6246 536.409 73.2425C535.517 72.9877 534.753 72.4782 534.116 71.8413C533.224 71.077 532.459 70.1854 532.077 69.1664C531.568 67.5104 532.459 65.7271 533.734 64.5807C535.008 63.4343 536.537 62.6701 537.938 61.651C539.849 60.3773 541.378 58.8487 542.653 56.938C547.494 61.3963 551.444 66.7462 554.247 72.8603Z" fill="#2CD0D1"/>
<path d="M560.363 106.87C560.236 106.998 559.981 107.125 559.726 107.125C559.471 107.125 559.216 106.998 559.089 106.87C558.452 106.106 557.687 105.469 556.923 104.705C557.05 104.068 557.305 103.431 557.432 102.667C558.452 103.686 559.471 104.705 560.363 105.597C560.745 105.979 560.745 106.488 560.363 106.87Z" fill="#8EC8FD"/>
<path d="M562.784 132.346H562.274C561.764 132.346 561.382 131.964 561.382 131.454C561.382 130.945 561.764 130.563 562.274 130.563H562.784C566.224 130.563 568.645 129.798 569.792 128.27C570.046 127.888 570.683 127.888 571.066 128.142C571.448 128.397 571.448 129.034 571.193 129.416C569.664 131.327 566.861 132.346 562.784 132.346ZM553.61 131.072C553.483 131.072 553.483 131.072 553.355 131.072C550.68 130.435 547.876 129.671 544.819 128.525C544.309 128.397 544.182 127.888 544.309 127.378C544.436 126.869 544.946 126.741 545.456 126.869C548.514 127.888 551.317 128.652 553.865 129.289C554.375 129.416 554.629 129.926 554.502 130.308C554.247 130.817 553.992 131.072 553.61 131.072ZM536.792 125.468C536.664 125.468 536.537 125.468 536.409 125.34C533.734 124.194 531.058 123.047 528.255 121.774C527.873 121.519 527.618 121.009 527.873 120.627C528.127 120.245 528.637 119.99 529.019 120.245C531.822 121.519 534.498 122.793 537.046 123.812C537.429 123.939 537.683 124.448 537.556 124.958C537.429 125.34 537.046 125.468 536.792 125.468ZM570.301 121.264C569.919 121.264 569.664 121.009 569.537 120.755C568.517 118.589 566.988 116.169 564.95 113.494C564.695 113.112 564.695 112.602 565.077 112.22C565.459 111.965 565.969 111.965 566.351 112.348C568.517 115.15 570.174 117.697 571.193 119.99C571.448 120.372 571.193 120.882 570.811 121.137C570.429 121.264 570.301 121.264 570.301 121.264ZM520.737 117.952C520.61 117.952 520.483 117.952 520.355 117.825C517.807 116.551 515.131 115.023 512.583 113.621C512.201 113.367 512.073 112.857 512.201 112.475C512.456 112.093 512.965 111.965 513.347 112.093C515.896 113.621 518.571 115.023 521.12 116.296C521.502 116.551 521.757 117.061 521.502 117.443C521.375 117.825 520.992 117.952 520.737 117.952ZM505.32 109.29C505.193 109.29 505.066 109.29 504.811 109.163C503.537 108.399 502.263 107.507 500.861 106.743C499.587 105.979 498.44 105.214 497.293 104.45C496.911 104.195 496.784 103.686 497.039 103.304C497.293 102.922 497.803 102.794 498.185 103.049C499.332 103.813 500.606 104.577 501.753 105.342C503.027 106.106 504.301 106.998 505.575 107.762C505.958 108.017 506.085 108.526 505.83 108.908C505.83 109.163 505.575 109.29 505.32 109.29ZM490.413 99.6097C490.286 99.6097 490.031 99.6097 489.903 99.4824C487.483 97.6991 485.062 96.0432 482.768 94.2599C482.386 94.0051 482.259 93.3682 482.641 92.9861C482.896 92.604 483.533 92.4766 483.915 92.8587C486.208 94.642 488.629 96.2979 491.05 98.0812C491.432 98.336 491.56 98.8455 491.305 99.2276C490.923 99.355 490.668 99.6097 490.413 99.6097ZM476.27 88.7826C476.015 88.7826 475.888 88.6552 475.761 88.5278C473.34 86.6172 471.174 84.5791 469.008 82.6684C468.625 82.2863 468.625 81.7768 469.008 81.3947C469.39 81.0125 469.9 81.0125 470.282 81.3947C472.32 83.3053 474.614 85.216 476.907 87.1267C477.29 87.3814 477.29 88.0183 477.035 88.4005C476.78 88.7826 476.525 88.7826 476.27 88.7826ZM463.274 76.9364C463.019 76.9364 462.764 76.8091 462.637 76.6817C460.344 74.3889 458.432 72.0961 456.649 70.058C456.394 69.6759 456.394 69.1664 456.776 68.7842C457.158 68.5295 457.668 68.5295 458.05 68.9116C459.707 70.9497 461.618 73.2425 463.911 75.4079C464.293 75.79 464.293 76.2995 463.911 76.6817C463.656 76.8091 463.402 76.9364 463.274 76.9364ZM452.444 62.9248C452.189 62.9248 451.807 62.7974 451.68 62.4153C450.405 59.8678 449.768 57.7023 449.768 55.7916C449.768 54.9 449.896 54.0084 450.278 53.2441C450.405 52.8619 450.915 52.6072 451.425 52.7346C451.807 52.862 452.062 53.3715 451.934 53.881C451.68 54.3905 451.552 55.0274 451.552 55.7916C451.552 57.4476 452.189 59.3582 453.336 61.651C453.591 62.0332 453.336 62.5427 452.954 62.7974C452.699 62.9248 452.571 62.9248 452.444 62.9248ZM467.351 51.7155H467.224C463.911 50.9513 460.981 50.6965 458.687 50.8239C458.178 50.8239 457.795 50.4418 457.795 49.9323C457.795 49.4227 458.178 49.0406 458.687 49.0406C461.108 48.9132 464.166 49.2954 467.734 50.0596C468.243 50.187 468.498 50.5691 468.371 51.0787C468.116 51.4608 467.734 51.7155 467.351 51.7155Z" fill="#8EC8FD"/>
<path d="M480.985 54.2631C480.475 54.6453 479.965 55.0274 479.583 55.4095C478.181 54.9 476.907 54.5179 475.633 54.0084C475.124 53.881 474.869 53.3715 475.124 52.862C475.251 52.3524 475.761 52.0977 476.27 52.3524C477.672 52.862 479.073 53.2441 480.602 53.881C480.602 54.0084 480.857 54.1357 480.985 54.2631Z" fill="#8EC8FD"/>
<path d="M372.811 391.433C372.811 391.815 376.378 391.943 378.035 391.943C378.799 392.325 379.564 392.707 380.328 393.216C381.475 391.688 382.622 390.159 383.768 388.631C382.494 388.249 381.22 387.739 379.946 387.357H379.819C379.819 387.357 379.819 387.357 379.691 387.357C378.927 386.338 377.015 384.045 376.506 384.173C375.869 384.427 376.506 386.72 376.506 386.72C376.506 386.72 371.537 384.682 371.154 385.192C370.772 385.701 374.595 387.612 374.595 387.612C374.595 387.612 371.154 386.72 370.645 387.23C370.263 387.867 374.595 389.14 374.595 389.14C374.595 389.14 370.9 389.013 370.9 389.777C370.772 390.542 375.232 390.414 375.232 390.414C375.232 390.414 372.811 390.924 372.811 391.433Z" fill="#CC6F49"/>
<path d="M383.386 388.121C383.386 388.121 377.27 392.707 377.78 394.363C378.29 396.019 408.104 407.61 412.946 405.7C417.788 403.789 423.012 375.511 422.502 372.326C421.992 369.015 414.093 367.741 414.093 367.741L407.722 391.433L383.386 388.121Z" fill="#00A2DD"/>
<path d="M424.286 470.153H409.124L416.386 534.734L420.718 534.351C420.718 534.351 427.598 498.431 424.668 481.617C424.795 481.617 423.649 474.993 424.286 470.153Z" fill="#CC6F49"/>
<path d="M416.386 533.333C416.386 533.333 419.062 535.116 421.1 533.333L421.483 534.479C421.865 535.498 421.992 536.644 421.992 537.663V538.045H407.849C407.849 537.026 408.486 536.135 409.506 535.753L416.386 533.333Z" fill="#00A2DD"/>
<path d="M443.398 470.153H428.618L447.985 532.186L452.189 531.04C452.189 531.04 451.807 494.482 445.691 478.432C445.819 478.432 444.162 474.356 443.398 470.153Z" fill="#CC6F49"/>
<path d="M447.73 530.912C447.73 530.912 450.66 532.186 452.317 530.021L452.954 531.04C453.463 531.931 453.973 532.95 454.1 534.097L454.228 534.479L440.467 537.281C440.212 536.262 440.722 535.243 441.614 534.734L447.73 530.912Z" fill="#00A2DD"/>
<path d="M409.124 397.675L406.575 409.776C404.792 418.055 404.282 426.59 405.046 434.997L408.232 472.446L445.309 471.681C445.309 471.681 445.946 412.451 431.548 397.675H409.124Z" fill="white"/>
<path d="M429.892 406.846C429.892 406.846 434.351 422.131 434.734 435.506C435.116 448.881 435.116 469.516 435.116 469.516" stroke="#0B334C" stroke-width="0.2956" stroke-miterlimit="10" stroke-linecap="round" stroke-linejoin="round"/>
<path d="M408.359 469.643H445.309" stroke="#0B334C" stroke-width="0.2956" stroke-miterlimit="10" stroke-linecap="round" stroke-linejoin="round"/>
<path d="M412.181 434.36C412.181 434.36 419.699 428.628 421.865 423.278L412.181 434.36Z" fill="#0B334C"/>
<path d="M394.726 389.905H367.969L361.598 369.269H388.483L394.726 389.905Z" fill="#0B334C"/>
<path d="M407.849 389.65H367.969V390.924H407.849V389.65Z" fill="#0B334C"/>
<path d="M429.51 365.066C418.042 374.619 416.259 364.939 416.259 364.939H416.386C417.66 364.939 418.552 363.919 418.552 362.773V352.583H426.579V362.773C426.579 363.665 427.216 364.556 427.981 364.811C428.236 364.939 428.49 364.939 428.745 364.939L429.51 365.066Z" fill="#CC6F49"/>
<path d="M418.552 360.353V362.391C418.552 362.391 423.139 360.735 424.541 357.296C424.541 357.296 422.247 359.971 418.552 360.353Z" fill="#0B334C"/>
<path d="M401.351 391.178C399.058 390.796 396.892 390.287 394.726 389.777H394.598C394.598 389.777 394.598 389.777 394.471 389.777C393.579 388.886 391.413 386.72 390.903 386.975C390.266 387.357 391.158 389.523 391.158 389.523C391.158 389.523 386.062 388.121 385.68 388.631C385.297 389.14 389.375 390.669 389.375 390.669C389.375 390.669 385.807 390.159 385.425 390.796C385.042 391.433 389.629 392.197 389.629 392.197C389.629 392.197 385.934 392.58 386.062 393.344C386.062 394.108 390.394 393.471 390.394 393.471C390.394 393.471 387.973 394.236 388.1 394.872C388.228 395.255 391.668 395 393.324 394.745C394.981 395.382 396.764 396.019 398.421 396.656C399.44 394.745 400.332 392.962 401.351 391.178Z" fill="#CC6F49"/>
<path d="M416.259 365.066C416.259 365.066 420.718 372.326 429.127 365.066C429.127 365.066 433.969 365.83 434.734 369.779C435.498 373.728 434.224 398.566 434.097 400.859C433.969 403.152 432.058 407.992 422.12 406.082C413.456 404.426 399.822 400.095 394.598 397.929C393.707 397.547 393.579 396.528 394.216 395.891C396.382 393.981 400.077 391.051 401.351 391.051L411.162 392.452C411.162 392.452 412.054 386.338 409.888 382.135C407.977 377.931 408.104 372.963 416.259 365.066Z" fill="#00A2DD"/>
<path d="M401.096 391.051L424.668 393.853L427.089 377.804L423.139 392.07L401.096 391.051Z" fill="#0B334C"/>
<path d="M424.541 396.528L424.668 393.853L426.324 396.146" stroke="#0B334C" stroke-width="0.2956" stroke-miterlimit="10" stroke-linecap="round" stroke-linejoin="round"/>
<path d="M394.981 395.255C394.981 395.255 393.324 396.91 394.216 397.802C395.108 398.694 414.602 404.298 414.602 404.298" stroke="#0B334C" stroke-width="0.2956" stroke-miterlimit="10" stroke-linecap="round"/>
<path d="M410.27 382.517C410.27 382.517 412.309 386.72 411.544 391.815" stroke="#0B334C" stroke-width="0.2956" stroke-miterlimit="10" stroke-linecap="round"/>
<path d="M415.622 366.34C415.622 366.34 422.12 373.982 430.019 365.703" stroke="#0B334C" stroke-width="0.2956" stroke-miterlimit="10" stroke-linecap="round"/>
<path d="M427.853 347.488C427.981 345.45 427.216 343.412 425.942 341.883C424.795 340.609 423.266 339.718 421.483 339.336C417.151 338.571 412.946 341.501 412.309 345.959C412.054 347.997 411.799 350.035 411.799 351.691C411.672 352.201 411.417 352.583 411.035 352.965C410.907 353.092 410.78 353.22 410.652 353.474C410.525 353.602 410.525 353.857 410.652 354.111C410.78 354.239 410.78 354.239 410.907 354.366C411.29 354.621 411.799 354.876 412.181 355.13C412.309 355.513 412.564 356.022 412.819 356.404C413.71 357.805 414.857 358.824 415.876 359.589C416.641 360.226 417.66 360.48 418.68 360.48C418.934 360.48 419.317 360.48 419.571 360.353C419.954 360.226 420.463 360.098 420.973 359.843C422.375 359.334 424.031 358.315 425.05 356.914C425.56 356.149 426.197 354.748 426.579 353.22C426.579 352.965 426.707 352.838 426.834 352.583C427.853 352.328 428.873 351.182 429.127 350.29C429.382 349.016 428.873 347.87 427.853 347.488Z" fill="#CC6F49"/>
<path d="M415.494 353.984C415.622 355.003 416.514 355.767 417.533 355.64C418.552 355.513 419.317 354.621 419.189 353.602C419.062 352.583 418.17 351.819 417.151 351.946C416.131 351.946 415.367 352.965 415.494 353.984Z" fill="#C4533A"/>
<path d="M413.455 347.997C413.838 347.742 414.347 347.615 414.984 347.742C415.239 347.742 415.494 347.87 415.749 347.997C416.004 348.125 416.131 348.379 416.258 348.507C416.258 348.634 416.258 348.634 416.258 348.761H416.131C415.749 348.507 415.494 348.379 415.112 348.252C414.729 348.252 414.347 348.379 413.965 348.379C413.838 348.379 413.71 348.252 413.71 348.125C413.328 348.252 413.328 348.125 413.455 347.997Z" fill="#0B334C"/>
<path d="M413.838 350.927C413.965 351.564 414.22 352.073 414.602 351.946C414.985 351.946 415.239 351.309 415.112 350.8C414.985 350.163 414.73 349.653 414.347 349.781C414.093 349.781 413.838 350.29 413.838 350.927Z" fill="#0B334C"/>
<path d="M414.985 356.277C415.239 356.022 415.622 355.895 415.876 355.64C415.749 355.895 415.622 355.895 415.494 356.022C415.367 356.149 415.112 356.277 414.985 356.277Z" fill="#0B334C"/>
<path d="M413.201 355.767C413.456 355.767 413.838 355.767 414.093 355.767C414.347 355.767 414.602 355.64 414.857 355.513C415.367 355.258 415.622 354.748 415.876 354.239C415.876 354.494 415.876 354.876 415.749 355.13C415.622 355.385 415.367 355.64 415.112 355.767C414.475 356.022 413.71 356.022 413.201 355.767Z" fill="#0B334C"/>
<path d="M431.676 345.577C431.166 343.284 428.236 343.029 428.236 343.029C427.471 340.609 423.266 337.68 418.17 337.297C413.456 336.915 408.614 341.374 409.124 344.685C409.506 347.106 411.035 348.379 411.927 348.889C411.927 348.379 412.054 347.87 412.054 347.488L414.348 346.723C418.042 347.87 419.826 345.704 419.826 345.704C419.826 345.704 419.317 348.507 422.12 348.761C422.12 348.761 422.375 351.564 423.266 351.564C424.158 351.564 424.031 348.507 425.05 347.742C425.815 347.233 426.961 347.106 427.344 349.016C427.726 350.927 424.795 352.583 424.795 352.583C424.795 352.583 425.05 357.678 426.707 357.551C429.764 358.315 432.058 347.742 431.676 345.577Z" fill="#0B334C"/>
<path d="M334.587 171.578C335.479 176.291 336.243 179.858 336.625 181.514C336.753 182.151 336.88 182.406 336.88 182.406L341.467 182.66L341.595 181.259L342.232 172.47C339.683 172.088 337.135 171.833 334.587 171.578Z" fill="#FFCBA1"/>
<path d="M341.467 181.132C341.467 181.132 338.664 183.042 336.498 181.259L336.116 182.533C335.734 183.679 335.606 184.826 335.606 185.845V186.227L350.386 185.717C350.386 184.698 349.622 183.679 348.602 183.425L341.467 181.132Z" fill="white"/>
<path d="M365.803 151.453C363.382 152.217 360.961 152.981 358.668 153.873C361.216 157.949 363.255 161.006 364.147 162.407C364.529 162.917 364.656 163.171 364.656 163.171L368.988 161.643L368.606 160.242L365.803 151.453Z" fill="#FFCBA1"/>
<path d="M368.479 160.369C368.479 160.369 366.695 163.171 363.892 162.28L364.019 163.554C364.147 164.7 364.402 165.846 364.784 166.865L364.911 167.248L378.417 161.388C378.035 160.369 377.015 159.86 375.996 159.86L368.479 160.369Z" fill="white"/>
<path d="M299.548 82.1589C299.548 82.1589 290.884 97.1896 291.521 108.399C292.286 119.608 330.127 127.123 330.127 127.123C330.127 127.123 325.668 132.091 335.734 178.075H342.104L345.417 131.072L361.598 159.477L367.714 156.93C367.714 156.93 352.552 104.195 350.004 101.648C348.602 100.247 330.51 95.9158 330.51 95.9158L325.158 82.5411L299.548 82.1589Z" fill="#00A2DD"/>
<path d="M331.274 124.958L329.873 127.123L332.293 126.487" stroke="#0B334C" stroke-width="0.2956" stroke-miterlimit="10" stroke-linecap="round" stroke-linejoin="round"/>
<path d="M345.29 130.817L340.448 115.15L313.054 99.2276" stroke="#0B334C" stroke-width="0.2956" stroke-miterlimit="10" stroke-linecap="round" stroke-linejoin="round"/>
<path d="M340.703 112.22L340.448 115.15L342.359 114.003" stroke="#0B334C" stroke-width="0.2956" stroke-miterlimit="10" stroke-linecap="round" stroke-linejoin="round"/>
<path d="M310.506 99.7371L315.475 98.0812" stroke="#0B334C" stroke-width="0.2956" stroke-miterlimit="10" stroke-linecap="round" stroke-linejoin="round"/>
<path d="M298.911 84.7065H325.158" stroke="#0B334C" stroke-width="0.2956" stroke-miterlimit="10" stroke-linecap="round" stroke-linejoin="round"/>
<path d="M301.077 82.4137V84.5791" stroke="#0B334C" stroke-width="0.2882" stroke-miterlimit="10" stroke-linecap="round" stroke-linejoin="round"/>
<path d="M302.479 82.4137V84.5791" stroke="#0B334C" stroke-width="0.2882" stroke-miterlimit="10" stroke-linecap="round" stroke-linejoin="round"/>
<path d="M310.251 82.4137V84.5791" stroke="#0B334C" stroke-width="0.2882" stroke-miterlimit="10" stroke-linecap="round" stroke-linejoin="round"/>
<path d="M311.653 82.4137V84.5791" stroke="#0B334C" stroke-width="0.2882" stroke-miterlimit="10" stroke-linecap="round" stroke-linejoin="round"/>
<path d="M319.297 82.4137V84.5791" stroke="#0B334C" stroke-width="0.2882" stroke-miterlimit="10" stroke-linecap="round" stroke-linejoin="round"/>
<path d="M320.699 82.4137V84.5791" stroke="#0B334C" stroke-width="0.2882" stroke-miterlimit="10" stroke-linecap="round" stroke-linejoin="round"/>
<path d="M335.606 176.291H341.977" stroke="#0B334C" stroke-width="0.2882" stroke-miterlimit="10" stroke-linecap="round" stroke-linejoin="round"/>
<path d="M360.961 157.567L366.95 155.147" stroke="#0B334C" stroke-width="0.2882" stroke-miterlimit="10" stroke-linecap="round" stroke-linejoin="round"/>
<path d="M346.054 48.2763C346.054 48.4037 346.054 48.4037 346.054 48.5311C345.417 52.7345 344.143 59.7403 343.251 64.0712C342.614 67.383 341.595 70.9496 339.938 73.8793C338.282 76.9364 336.116 80.1209 334.332 80.2482C331.784 80.503 327.707 77.0638 325.031 74.3888C324.776 74.1341 324.521 73.752 324.139 73.4972C323.375 72.6056 322.483 71.7139 321.718 70.8223C320.317 69.1663 318.915 67.5104 317.514 65.8545C316.494 64.5807 315.475 63.1796 314.456 61.7784L312.927 59.7404C312.417 58.9761 312.035 58.3392 311.525 57.5749C309.741 54.9 310.506 51.206 313.309 49.4227C315.985 47.6394 319.68 48.4037 321.463 51.0786V51.206C321.846 51.7155 322.355 52.4798 322.737 53.1167L324.012 55.0274C324.903 56.3011 325.795 57.5749 326.815 58.8487C328.726 61.3963 330.637 63.8165 332.548 66.2366C332.931 66.6188 333.313 67.1283 333.568 67.5104C333.822 66.7462 334.077 66.1093 334.459 65.345C335.606 62.4153 336.753 59.3582 337.772 56.3011C338.792 53.2441 339.811 50.187 340.703 47.1299V47.0025C340.703 47.0025 340.703 47.0025 340.703 46.8751C341.212 45.474 342.614 44.8371 344.015 45.2192C345.544 45.7287 346.309 47.0025 346.054 48.2763Z" fill="#FFCBA1"/>
<path d="M341.085 47.6394C341.085 47.6394 339.556 42.7991 340.193 42.4169C340.83 42.0348 342.359 43.9455 342.359 43.9455C342.359 43.9455 343.761 38.4682 344.398 38.4682C345.035 38.4682 344.27 42.9264 344.27 42.9264C344.27 42.9264 345.672 39.4872 346.436 39.3598C347.201 39.3598 345.544 43.8181 345.544 43.8181C345.544 43.8181 347.71 40.6336 348.475 41.1431C349.239 41.5253 346.309 45.2192 346.309 45.2192C346.309 45.2192 348.347 43.4359 348.73 43.8181C349.112 44.2002 345.544 49.168 345.544 49.168L341.085 47.6394Z" fill="#FFCBA1"/>
<path d="M330.637 74.5162C330.637 74.5162 331.529 70.058 333.695 67.5104" stroke="#0B334C" stroke-width="0.2882" stroke-miterlimit="10" stroke-linecap="round" stroke-linejoin="round"/>
<path d="M346.691 48.5311H349.622C352.042 48.5311 354.081 46.493 354.081 44.0728V39.3598H342.104V44.0728C342.232 46.493 344.27 48.5311 346.691 48.5311Z" fill="#00A2DD"/>
<path d="M342.232 39.3598C342.232 40.2515 344.907 40.8884 348.22 40.8884C351.533 40.8884 354.209 40.1241 354.209 39.3598C354.209 38.4682 351.533 37.8313 348.22 37.8313C344.907 37.8313 342.232 38.4682 342.232 39.3598Z" fill="#64C8ED"/>
<path d="M342.614 39.3598C342.614 39.6146 342.996 39.9967 343.761 40.2515C344.78 40.5062 346.309 40.761 348.093 40.761C349.876 40.761 351.405 40.5062 352.425 40.2515C353.189 39.9967 353.571 39.742 353.571 39.3598C353.571 38.5956 351.151 37.9587 348.093 37.9587C345.162 37.9587 342.614 38.5956 342.614 39.3598Z" fill="#1D464A"/>
<path d="M342.614 39.3598C342.614 39.6146 342.996 39.9967 343.761 40.2515C344.78 40.5062 346.309 40.761 348.093 40.761C349.876 40.761 351.405 40.5062 352.425 40.2515C353.189 39.9967 353.571 39.742 353.571 39.3598C353.571 38.5956 351.151 37.9587 348.093 37.9587C345.162 37.9587 342.614 38.5956 342.614 39.3598Z" fill="#0083B3"/>
<path d="M343.888 40.2515C344.907 40.5062 346.436 40.761 348.22 40.761C350.004 40.761 351.533 40.5062 352.552 40.2515C351.788 39.742 350.131 39.4872 348.22 39.4872C346.309 39.3598 344.525 39.742 343.888 40.2515Z" fill="#0B334C"/>
<path d="M342.741 40.6336C342.614 40.5062 342.359 40.3789 342.232 40.3789C342.104 40.2515 341.849 40.2515 341.722 40.1241C341.34 39.9967 340.958 39.9967 340.448 39.9967C340.448 39.9967 340.448 39.9967 340.32 39.9967H340.193C340.193 39.9967 340.066 39.9967 340.066 40.1241C340.066 40.1241 339.938 40.1241 339.938 40.2515C339.811 40.2515 339.811 40.3789 339.811 40.3789L339.683 40.5062C339.556 40.761 339.429 40.8884 339.429 41.1431C339.301 41.5253 339.301 41.9074 339.301 42.4169C339.429 43.1812 339.683 44.0728 340.32 44.5823C340.575 44.8371 340.958 45.0919 341.34 45.2192C341.722 45.3466 342.104 45.474 342.486 45.474V44.455C341.849 44.5823 341.212 44.3276 340.83 43.9455C340.448 43.5633 340.32 42.9264 340.32 42.2895C340.32 42.0348 340.32 41.6527 340.448 41.3979C340.448 41.2705 340.575 41.1431 340.575 41.1431C341.085 41.1431 341.722 41.2705 342.359 41.5253L342.741 40.6336Z" fill="#00A2DD"/>
<path d="M322.355 71.3318C323.247 68.6568 324.266 64.8355 325.031 61.7784C325.923 58.4666 325.158 54.9 322.865 52.225L320.699 49.8049C319.552 48.4037 317.768 47.6394 315.857 47.6394H315.602C314.838 47.2573 314.328 46.493 314.328 45.6014V34.9016H305.919V45.6014C305.919 46.493 305.282 47.3847 304.517 47.7668L301.587 47.8942C299.166 48.0216 297.382 49.9322 297.127 52.225C297 53.4988 296.873 54.6452 296.873 55.0274C296.873 55.7916 299.931 65.8545 301.714 71.3318C302.351 73.4972 302.606 75.79 301.587 77.8281L299.421 82.1589H324.903H325.158L322.992 77.8281C321.846 75.79 321.718 73.4972 322.355 71.3318Z" fill="#FFCBA1"/>
<path d="M314.456 41.6526V43.4359C314.073 43.4359 313.691 43.4359 313.181 43.3086C311.398 42.9264 308.849 42.1622 307.193 40.1241C306.811 39.6146 306.429 38.9777 306.046 38.2134V37.9587C306.174 38.2134 306.301 38.3408 306.429 38.5956C308.085 40.5062 310.633 41.3979 312.417 41.78C313.181 41.78 313.819 41.78 314.456 41.6526Z" fill="#0B334C"/>
<path d="M304.263 47.512L308.595 56.8106C308.595 56.8106 316.622 57.4475 317.768 55.919C318.915 54.3905 315.985 48.1489 315.985 48.1489H317.896C317.896 48.1489 325.286 57.3202 325.286 60.632C325.286 63.9438 321.718 74.6436 322.737 76.809C323.757 78.9745 325.286 82.6684 325.286 82.6684H299.548C299.548 82.6684 302.988 77.9554 302.097 74.1341C301.205 70.1854 299.039 63.1796 299.039 63.1796C299.039 63.1796 300.44 63.3069 301.969 63.1796C303.753 62.9248 305.027 61.1415 304.645 59.3582L302.224 47.8942L304.263 47.512Z" fill="#F64652"/>
<path d="M303.625 48.1489C303.625 48.1489 306.811 57.7023 308.085 58.2118C309.359 58.7213 318.405 58.3392 319.042 56.938C319.552 55.5369 317.004 48.4037 317.004 48.4037" stroke="#0B334C" stroke-width="0.2956" stroke-miterlimit="10" stroke-linecap="round" stroke-linejoin="round"/>
<path d="M302.224 47.8942C300.44 47.6394 299.803 47.7668 298.402 49.0406C297.764 49.6775 297.127 50.3144 296.49 50.9513L294.707 52.8619C293.56 54.1357 292.413 55.4095 291.394 56.6833C291.139 57.0654 290.757 57.4475 290.502 57.8297C288.718 59.9951 286.934 62.2879 285.151 64.7081C283.112 67.5104 281.328 70.3127 279.544 73.2424C279.162 73.8793 278.78 74.6436 278.398 75.2805C277.251 77.4459 276.614 79.7387 276.741 82.1589C276.741 82.4137 276.741 82.541 276.741 82.7958C276.869 86.235 277.251 89.6742 277.761 92.9861C277.888 94.3872 278.143 95.7884 278.398 97.1895C278.398 97.4443 278.525 97.6991 278.525 97.9538C278.78 99.6097 279.162 101.266 279.544 102.922C280.946 109.418 282.73 115.659 284.896 121.901C284.896 122.028 284.896 122.028 285.023 122.156C285.405 123.429 286.68 124.194 287.954 123.939C289.355 123.684 290.375 122.283 290.12 120.882C290.12 120.882 290.12 120.882 290.12 120.755V120.627C289.61 117.57 288.973 114.258 288.591 111.074C288.081 107.889 287.699 104.705 287.444 101.52C286.807 94.8967 286.425 88.1457 286.68 81.7768C288.973 78.2102 291.521 74.771 294.197 71.4591C296.108 69.039 299.039 64.8355 301.205 62.5427C301.205 62.2879 301.842 49.4227 302.224 47.8942Z" fill="#FFCBA1"/>
<path d="M289.61 120.245C289.61 120.245 293.178 123.939 292.795 124.576C292.413 125.213 290.12 124.194 290.12 124.194C290.12 124.194 291.394 129.671 290.757 129.926C290.12 130.308 288.846 125.977 288.846 125.977C288.846 125.977 289.228 129.671 288.591 130.053C287.954 130.435 287.317 125.595 287.317 125.595C287.317 125.595 286.807 129.416 286.042 129.289C285.278 129.289 286.042 124.703 286.042 124.703C286.042 124.703 285.151 127.251 284.514 127.123C283.876 126.996 284.896 120.882 284.896 120.882L289.61 120.245Z" fill="#FFCBA1"/>
<path d="M318.915 26.2399C317.896 21.6543 313.309 18.852 308.849 20.1257C304.645 21.2721 302.097 25.3482 302.861 29.4243H302.734C301.587 29.9339 300.95 31.2076 301.459 32.354C301.842 33.3731 303.371 34.6468 304.517 34.5195C305.154 36.1754 305.792 37.5765 306.556 38.4682C308.212 40.3789 310.761 41.2705 312.544 41.6526C313.946 41.9074 315.348 41.5253 316.367 40.6336C317.386 39.8694 318.533 38.5956 319.297 37.067C319.68 36.4301 319.934 35.6659 320.062 34.9016C320.189 34.5195 320.189 34.01 320.189 33.5004C319.934 31.5898 319.552 28.9148 318.915 26.2399Z" fill="#FFCBA1"/>
<path d="M311.398 35.2827C311.398 36.3018 310.506 37.1934 309.486 37.1934C308.467 37.1934 307.575 36.3018 307.575 35.2827C307.575 34.2637 308.467 33.3721 309.486 33.3721C310.506 33.2447 311.398 34.1363 311.398 35.2827Z" fill="#FFB285"/>
<path d="M320.062 33.6278C320.062 34.1373 320.062 34.6469 319.934 35.029C319.807 35.7933 319.552 36.5575 319.17 37.1944H319.042C318.023 37.1944 317.131 36.3028 317.131 35.2837C317.131 34.2647 318.023 33.3731 319.042 33.3731C319.425 33.2457 319.68 33.3731 320.062 33.6278Z" fill="#FFB285"/>
<path d="M313.946 30.8255C314.073 31.2076 314.201 31.4624 314.328 31.8445C314.456 32.2267 314.583 32.4814 314.583 32.8635C314.583 33.2457 314.71 33.6278 314.583 34.1373C314.328 34.6468 313.946 34.7742 313.564 34.9016C313.819 34.5195 314.073 34.2647 313.946 34.01C313.946 33.7552 313.819 33.3731 313.819 33.1183C313.819 32.354 313.564 31.5898 313.946 30.8255Z" fill="#0B334C"/>
<path d="M311.907 29.0427C311.525 29.0427 311.015 29.0427 310.633 29.0427C310.251 29.0427 309.869 29.2975 309.614 29.6796C309.614 29.6796 309.487 29.6796 309.359 29.6796V29.5523C309.487 29.2975 309.614 29.0427 309.741 28.9154C309.996 28.788 310.251 28.5332 310.506 28.5332C311.015 28.4058 311.525 28.4058 312.035 28.6606C312.162 28.788 312.29 28.9154 312.162 29.0427C312.162 29.0427 312.035 29.0427 311.907 29.0427Z" fill="#0B334C"/>
<path d="M315.985 28.5327C316.494 28.2779 317.004 28.2779 317.513 28.4053C317.768 28.5327 318.023 28.6601 318.278 28.7875C318.533 28.9148 318.66 29.1696 318.66 29.4244C318.66 29.5517 318.66 29.5517 318.533 29.6791H318.405C318.151 29.4243 317.768 29.1696 317.386 29.0422C317.004 29.0422 316.622 29.0422 316.112 29.0422C315.985 29.0422 315.857 28.9148 315.857 28.7875C315.857 28.6601 315.857 28.5327 315.985 28.5327Z" fill="#0B334C"/>
<path d="M312.29 36.3028C312.035 36.3028 311.907 36.3028 311.653 36.1754C311.525 36.048 311.27 35.9207 311.143 35.7933C311.525 36.048 311.907 36.1754 312.29 36.3028Z" fill="#0B334C"/>
<path d="M314.073 35.6659C313.564 36.048 312.799 36.048 312.162 35.9206C311.907 35.7933 311.525 35.5385 311.398 35.2838C311.143 35.029 311.143 34.6469 311.143 34.3921C311.398 34.9016 311.78 35.4111 312.29 35.6659C312.544 35.7933 312.799 35.7933 313.181 35.7933C313.436 35.7933 313.691 35.7933 314.073 35.6659Z" fill="#0B334C"/>
<path d="M309.614 31.9719C309.996 31.5898 310.378 31.335 310.888 31.2076C311.143 31.2076 311.525 31.2076 311.78 31.335C312.035 31.4624 312.162 31.7172 312.29 31.9719C312.29 32.0993 312.29 32.0993 312.162 32.2267H312.035C311.907 32.0993 311.78 31.9719 311.525 31.8445C311.398 31.7172 311.143 31.7172 311.015 31.7172C310.633 31.7172 310.251 31.9719 309.869 32.2267C309.741 32.2267 309.614 32.2267 309.614 32.0993V31.9719Z" fill="#0B334C"/>
<path d="M315.985 31.9719C316.367 31.5898 316.749 31.335 317.259 31.2076C317.514 31.2076 317.896 31.2076 318.151 31.335C318.405 31.4624 318.533 31.7172 318.66 31.9719C318.66 32.0993 318.66 32.0993 318.533 32.2267H318.405C318.278 32.0993 318.151 31.9719 317.896 31.8445C317.768 31.7172 317.514 31.7172 317.386 31.7172C317.004 31.7172 316.622 31.9719 316.239 32.2267C316.112 32.2267 315.985 32.2267 315.985 32.0993C315.857 32.0993 315.857 31.9719 315.985 31.9719Z" fill="#0B334C"/>
<path d="M320.189 30.1886C320.571 27.8958 320.189 25.4756 318.66 23.3102C316.876 20.6353 314.456 19.4889 312.162 19.1067C311.143 18.852 310.124 18.852 309.104 19.1067C310.761 16.9413 309.359 13.6295 306.556 13.3747C304.9 13.2473 303.116 13.6295 302.096 15.5401C300.185 19.1067 303.116 20.89 304.008 21.3995C302.734 22.5459 301.714 23.9471 301.205 25.7304C301.205 25.7304 301.205 25.7304 301.205 25.8578C299.93 30.316 300.568 35.5385 304.772 38.5956C304.9 41.5253 305.154 44.2002 305.664 44.8371C306.683 45.9835 306.174 34.1373 306.046 30.1886C313.946 28.7875 315.73 25.0935 315.73 25.0935C318.023 25.2209 318.915 27.7684 319.425 29.5517C319.425 29.8065 319.552 30.0612 319.552 30.316C319.552 30.4434 319.552 30.5708 319.552 30.6981C319.552 30.9529 319.68 31.2076 319.68 31.4624C319.807 32.2267 319.807 32.8636 319.807 33.5005C319.807 34.01 319.807 34.5195 319.68 34.9016C319.552 35.6659 319.297 36.4301 318.915 37.067C318.788 37.1944 318.788 37.3218 318.66 37.4492C318.788 40.761 319.042 43.9455 319.552 44.5823C320.954 45.9835 320.444 34.1373 320.189 30.1886ZM304.517 34.6469C303.371 34.7742 301.842 33.5005 301.459 32.4814C300.95 31.335 301.587 29.9339 302.734 29.4244H302.861C302.861 29.4244 302.861 29.4244 302.861 29.297L304.772 29.9339C304.772 31.0803 304.772 33.1183 304.9 35.4111C304.772 35.1564 304.645 34.9016 304.517 34.6469Z" fill="#0B334C"/>
<path d="M310.378 34.9016C312.278 34.9016 313.819 33.3618 313.819 31.4624C313.819 29.563 312.278 28.0232 310.378 28.0232C308.478 28.0232 306.938 29.563 306.938 31.4624C306.938 33.3618 308.478 34.9016 310.378 34.9016Z" stroke="#00A2DD" stroke-width="0.25" stroke-miterlimit="10"/>
<path d="M317.259 34.9016C319.159 34.9016 320.699 33.3618 320.699 31.4624C320.699 29.563 319.159 28.0232 317.259 28.0232C315.359 28.0232 313.819 29.563 313.819 31.4624C313.819 33.3618 315.359 34.9016 317.259 34.9016Z" stroke="#00A2DD" stroke-width="0.25" stroke-miterlimit="10"/>
</g>
<defs>
<clipPath id="clip0">
<rect width="660" height="549" fill="white"/>
</clipPath>
</defs>
</svg>
