<svg width="512" height="512" viewBox="0 0 512 512" fill="none" xmlns="http://www.w3.org/2000/svg">
<g clip-path="url(#clip0)">
<path d="M480.684 488.383H31.3164C18.1641 488.383 7.5 477.719 7.5 464.566V47.3164C7.5 34.1602 18.1641 23.5 31.3164 23.5H480.684C493.84 23.5 504.5 34.1602 504.5 47.3164V464.566C504.5 477.719 493.836 488.383 480.684 488.383V488.383Z" fill="#F4F4F4"/>
<path d="M480.684 23.5H445.684C458.836 23.5 469.5 34.1602 469.5 47.3164V464.566C469.5 477.719 458.836 488.383 445.684 488.383H480.684C493.836 488.383 504.5 477.719 504.5 464.566V47.3164C504.5 34.1602 493.836 23.5 480.684 23.5V23.5Z" fill="#E8E8E8"/>
<path d="M7.5 112.965H504.5V47.3164C504.5 34.1602 493.836 23.5 480.684 23.5H31.3164C18.1641 23.5 7.5 34.1602 7.5 47.3164V112.965Z" fill="#FA5D72"/>
<path d="M480.684 23.5H445.684C458.836 23.5 469.5 34.1602 469.5 47.3164V112.965H504.5V47.3164C504.5 34.1602 493.836 23.5 480.684 23.5V23.5Z" fill="#E35567"/>
<path d="M84.8086 68.2305C84.8086 77.9805 76.9062 85.8867 67.1562 85.8867C57.4062 85.8867 49.5 77.9805 49.5 68.2305C49.5 58.4805 57.4062 50.5781 67.1562 50.5781C76.9062 50.5781 84.8086 58.4805 84.8086 68.2305Z" fill="#2CAB72"/>
<path d="M144.57 68.2305C144.57 77.9805 136.664 85.8867 126.914 85.8867C117.164 85.8867 109.262 77.9805 109.262 68.2305C109.262 58.4805 117.164 50.5781 126.914 50.5781C136.664 50.5781 144.57 58.4805 144.57 68.2305Z" fill="#F6D867"/>
<path d="M204.328 68.2305C204.328 77.9805 196.426 85.8867 186.676 85.8867C176.926 85.8867 169.02 77.9805 169.02 68.2305C169.02 58.4805 176.926 50.5781 186.676 50.5781C196.426 50.5781 204.328 58.4805 204.328 68.2305Z" fill="#5994CE"/>
<path d="M358.957 438.047H153.043C130.652 438.047 112.5 419.895 112.5 397.504V242.398C112.5 220.008 130.652 201.855 153.043 201.855H358.957C381.348 201.855 399.5 220.008 399.5 242.398V397.504C399.5 419.895 381.348 438.047 358.957 438.047V438.047Z" fill="#9C9A9B"/>
<path d="M358.957 201.855H320.457C342.848 201.855 361 220.008 361 242.398V397.504C361 419.895 342.848 438.047 320.457 438.047H358.957C381.348 438.047 399.5 419.895 399.5 397.504V242.398C399.5 220.008 381.348 201.855 358.957 201.855V201.855Z" fill="#858384"/>
<path d="M331 201.855H181V179.48C181 169.836 188.816 162.016 198.461 162.016H313.535C323.18 162.016 331 169.836 331 179.48V201.855Z" fill="#495663"/>
<path d="M313.539 162.016H282.871C292.516 162.016 300.332 169.836 300.332 179.477V201.855H331V179.477C331 169.836 323.184 162.016 313.539 162.016Z" fill="#3A444F"/>
<path d="M92.3086 68.2305C92.3086 54.3594 81.0273 43.0781 67.1562 43.0781C53.2852 43.0781 42 54.3594 42 68.2305C42 82.1016 53.2852 93.3867 67.1523 93.3867C81.0234 93.3867 92.3086 82.1016 92.3086 68.2305ZM67.1562 78.3867C61.5547 78.3867 57 73.8281 57 68.2305C57 62.6328 61.5547 58.0781 67.1523 58.0781C72.7539 58.0781 77.3086 62.6328 77.3086 68.2305C77.3086 73.8281 72.7539 78.3867 67.1562 78.3867Z" fill="black"/>
<path d="M126.914 93.3867C140.785 93.3867 152.07 82.1016 152.07 68.2305C152.07 54.3594 140.785 43.0781 126.914 43.0781C113.047 43.0781 101.762 54.3594 101.762 68.2305C101.762 82.1016 113.043 93.3867 126.914 93.3867ZM126.914 58.0781C132.516 58.0781 137.07 62.6328 137.07 68.2305C137.07 73.8281 132.516 78.3867 126.914 78.3867C121.316 78.3867 116.762 73.8281 116.762 68.2305C116.762 62.6328 121.316 58.0781 126.914 58.0781Z" fill="black"/>
<path d="M186.676 93.3867C200.543 93.3867 211.828 82.1016 211.828 68.2305C211.828 54.3594 200.543 43.0781 186.676 43.0781C172.805 43.0781 161.52 54.3594 161.52 68.2305C161.52 82.1016 172.805 93.3867 186.676 93.3867ZM186.676 58.0781C192.273 58.0781 196.828 62.6328 196.828 68.2305C196.828 73.8281 192.273 78.3867 186.676 78.3867C181.074 78.3867 176.52 73.8281 176.52 68.2305C176.52 62.6328 181.074 58.0781 186.676 58.0781Z" fill="black"/>
<path d="M269.668 75.7305H452.336C456.477 75.7305 459.836 72.375 459.836 68.2305C459.836 64.0898 456.477 60.7305 452.336 60.7305H269.668C265.523 60.7305 262.168 64.0898 262.168 68.2305C262.168 72.375 265.523 75.7305 269.668 75.7305V75.7305Z" fill="black"/>
<path d="M511.578 42.1641C511.535 41.9063 511.488 41.6523 511.438 41.3945C511.414 41.2695 511.391 41.1406 511.363 41.0117C508.438 26.7578 495.793 16 480.684 16H31.3164C14.0508 16 0 30.0469 0 47.3164V464.566C0 481.836 14.0508 495.883 31.3164 495.883H480.684C497.949 495.883 512 481.832 512 464.566V47.3164C512 45.5625 511.855 43.8438 511.578 42.1641V42.1641ZM480.684 480.883H31.3164C22.3203 480.883 15 473.562 15 464.566V120.465H56.8086C60.9531 120.465 64.3086 117.105 64.3086 112.965C64.3086 108.82 60.9531 105.465 56.8086 105.465H15V47.3164C15 38.3203 22.3203 31 31.3164 31H480.684C487.992 31 494.195 35.832 496.266 42.4688C496.285 42.5352 496.305 42.5977 496.324 42.6602C496.383 42.8555 496.434 43.0469 496.484 43.2422C496.504 43.3086 496.52 43.375 496.535 43.4414C496.582 43.6367 496.629 43.8359 496.668 44.0312C496.75 44.4297 496.816 44.8359 496.867 45.2422C496.887 45.3789 496.902 45.5156 496.914 45.6523C496.973 46.1992 497 46.7539 497 47.3164V105.465H84.8086C80.668 105.465 77.3086 108.82 77.3086 112.965C77.3086 117.105 80.668 120.465 84.8086 120.465H497V464.566C497 473.562 489.68 480.883 480.684 480.883V480.883Z" fill="black"/>
<path d="M166.363 314.246C169.293 317.176 174.039 317.172 176.969 314.246L191.664 299.547L206.363 314.246C209.293 317.176 214.039 317.172 216.969 314.246C219.898 311.316 219.898 306.566 216.969 303.637L202.273 288.941L216.969 274.246C219.898 271.316 219.898 266.566 216.969 263.637C214.039 260.711 209.289 260.711 206.363 263.637L191.664 278.336L176.969 263.637C174.039 260.711 169.289 260.711 166.363 263.637C163.434 266.566 163.434 271.316 166.363 274.246L181.059 288.941L166.363 303.637C163.434 306.566 163.434 311.316 166.363 314.246V314.246Z" fill="black"/>
<path d="M295.031 314.246C297.961 317.176 302.707 317.172 305.637 314.246L320.332 299.547L335.031 314.246C337.961 317.176 342.707 317.172 345.637 314.246C348.566 311.316 348.566 306.566 345.637 303.637L330.941 288.941L345.637 274.246C348.566 271.316 348.566 266.566 345.637 263.637C342.707 260.711 337.957 260.711 335.031 263.637L320.332 278.336L305.637 263.637C302.707 260.711 297.957 260.711 295.031 263.637C292.102 266.566 292.102 271.316 295.031 274.246L309.727 288.941L295.031 303.637C292.102 306.566 292.102 311.316 295.031 314.246V314.246Z" fill="black"/>
<path d="M187.504 375.773H324.496C328.637 375.773 331.996 372.418 331.996 368.273C331.996 364.133 328.637 360.773 324.496 360.773H187.504C183.363 360.773 180.004 364.133 180.004 368.273C180.004 372.418 183.363 375.773 187.504 375.773V375.773Z" fill="black"/>
<path d="M358.957 194.355H338.5V179.48C338.5 165.715 327.301 154.516 313.539 154.516H198.461C184.699 154.516 173.5 165.715 173.5 179.48V194.355H153.043C126.551 194.355 105 215.91 105 242.398V397.504C105 423.992 126.551 445.547 153.043 445.547H286.336C290.477 445.547 293.836 442.188 293.836 438.047C293.836 433.902 290.477 430.547 286.336 430.547H153.043C134.824 430.547 120 415.723 120 397.504V242.398C120 224.18 134.824 209.355 153.043 209.355H358.957C377.176 209.355 392 224.18 392 242.398V397.504C392 415.723 377.176 430.547 358.957 430.547H314.332C310.191 430.547 306.832 433.902 306.832 438.047C306.832 442.188 310.191 445.547 314.332 445.547H358.957C385.449 445.547 407 423.992 407 397.504V242.398C407 215.91 385.449 194.355 358.957 194.355V194.355ZM188.5 194.355V179.48C188.5 173.984 192.969 169.516 198.461 169.516H313.535C319.031 169.516 323.5 173.984 323.5 179.48V194.355H188.5Z" fill="black"/>
</g>
<defs>
<clipPath id="clip0">
<rect width="512" height="512" fill="white"/>
</clipPath>
</defs>
</svg>
